<?xml version="1.0" standalone="no"?>
<!DOCTYPE svg PUBLIC "-//W3C//DTD SVG 1.1//EN" "http://www.w3.org/Graphics/SVG/1.1/DTD/svg11.dtd" >
<svg xmlns="http://www.w3.org/2000/svg">
<metadata>Generated by IcoMoon</metadata>
<defs>
<font id="Interface" horiz-adv-x="1024">
<font-face units-per-em="1024" ascent="960" descent="-64" />
<missing-glyph horiz-adv-x="1024" />
<glyph unicode="&#x20;" horiz-adv-x="512" d="" />
<glyph unicode="&#xe900;" glyph-name="alarm-clock" d="M512.518 783.134c-220.813 0-400.449-179.636-400.449-400.44-0.088-92.4 31.932-181.958 90.579-253.36l-78.105-98.285c-7.741-9.738-6.122-23.9 3.615-31.641s23.909-6.122 31.65 3.615l73.681 92.725c155.225-151.346 402.797-151.346 558.023 0l73.689-92.725c7.741-9.738 21.904-11.356 31.641-3.624 9.738 7.741 11.365 21.904 3.624 31.641l-78.088 98.293c58.647 71.402 90.667 160.961 90.57 253.369 0 220.795-179.636 400.431-400.431 400.431zM512.518 27.284c-195.98 0-355.41 159.439-355.41 355.41s159.421 355.41 355.41 355.41c195.98 0 355.401-159.439 355.401-355.41s-159.448-355.41-355.401-355.41zM357.169 837.268c0 5.973-2.366 11.7-6.589 15.922-80.199 80.199-210.231 80.199-290.429 0s-80.199-210.231 0-290.429c8.797-8.788 23.047-8.788 31.844 0l258.586 258.577c4.222 4.231 6.597 9.958 6.589 15.931zM77.182 611.635c-47.915 63.855-41.599 153.228 14.814 209.712 56.51 56.369 145.839 62.676 209.703 14.805zM964.858 853.19c-80.26 80.067-210.178 80.067-290.429 0-8.797-8.797-8.797-23.056 0-31.844l258.577-258.586c4.231-4.222 9.958-6.597 15.931-6.597h0.185c6.034 0.053 11.796 2.525 15.992 6.861 78.615 81.237 78.501 211.4-0.255 290.165zM947.537 611.925l-224.226 224.226c63.863 47.862 153.193 41.555 209.694-14.814 56.096-56.087 60.917-145.76 14.532-209.412zM675.862 507.008l-174.235-146.464-132.073 89.919c-10.274 6.993-24.287 4.337-31.281-5.947-7.002-10.274-4.346-24.287 5.938-31.29l146.173-99.516c8.339-5.683 19.432-5.12 27.155 1.372l187.298 157.451c6.228 5.155 9.219 13.257 7.829 21.217-1.399 7.97-6.949 14.576-14.558 17.321-7.609 2.736-16.098 1.188-22.247-4.064z" />
<glyph unicode="&#xe901;" glyph-name="antenna" d="M324.047 408.261c9.628 0 18.316 5.805 22 14.707 3.693 8.893 1.647 19.144-5.163 25.953-93.721 93.935-93.721 246.018 0 339.953 9.302 9.302 9.302 24.381 0 33.674-9.302 9.302-24.381 9.302-33.684 0-112.288-112.549-112.288-294.753 0-407.311 4.465-4.474 10.53-6.986 16.846-6.977zM682.028 822.549c-9.293-9.302-9.293-24.381 0-33.674 93.73-93.944 93.73-246.018 0-339.963-9.293-9.293-9.302-24.372 0-33.674s24.381-9.302 33.684 0c112.288 112.549 112.288 294.763 0 407.311-9.302 9.302-24.381 9.302-33.684 0zM210.419 953.023c-9.302 9.302-24.381 9.302-33.684 0-184.846-184.865-184.846-484.576 0-669.441 9.302-9.302 24.381-9.302 33.684 0s9.302 24.381 0 33.684c-166.251 166.26-166.251 435.814 0 602.083 9.293 9.302 9.293 24.372 0 33.674zM812.502 953.023c-9.293-9.302-9.293-24.381 0-33.674 166.251-166.27 166.251-435.823 0-602.093-9.293-9.302-9.302-24.381 0-33.674 9.302-9.302 24.381-9.302 33.684-0.009 184.846 184.874 184.846 484.586 0 669.451-9.302 9.302-24.381 9.302-33.684 0zM574.874 518.028c44.67 28.233 65.302 82.595 50.605 133.358-14.688 50.763-61.172 85.693-114.019 85.693s-99.33-34.93-114.028-85.693c-14.688-50.763 5.944-105.125 50.614-133.358l-199.758-550.083c-2.651-7.302-1.572-15.442 2.884-21.795 4.456-6.363 11.73-10.149 19.498-10.149h481.572c7.767 0 15.051 3.786 19.507 10.149 4.456 6.353 5.535 14.493 2.884 21.795zM511.46 689.377c39.256 0 71.079-31.823 71.079-71.079s-31.823-71.079-71.079-71.079c-39.256 0-71.079 31.823-71.079 71.079 0.047 39.237 31.842 71.032 71.079 71.079zM511.46 499.6c6.326 0 12.642 0.512 18.884 1.516l84.149-231.721h-206.065l84.149 231.711c6.242-1.005 12.558-1.507 18.884-1.507zM304.661-16.371l86.474 238.139h240.651l86.474-238.139z" />
<glyph unicode="&#xe902;" glyph-name="apartment" d="M911.342 960h-798.303c-48.944-0.052-88.606-39.714-88.658-88.658v-913.177c0-12.242 9.922-22.165 22.165-22.165h931.299c12.234 0 22.165 9.922 22.165 22.165v913.177c-0.061 48.944-39.723 88.606-88.667 88.658zM647.229-19.671h-257.983v140.762c0.017 12.234 9.931 22.147 22.165 22.165h213.654c12.242-0.017 22.156-9.931 22.165-22.165zM691.558-19.671v140.762c-0.035 36.701-29.784 66.45-66.494 66.494h-213.654c-36.701-0.043-66.45-29.792-66.494-66.494v-140.762h-276.208v891.013c0.026 24.468 19.861 44.303 44.329 44.329h798.303c24.476-0.026 44.303-19.861 44.329-44.329v-891.013zM856.892 514.519h-689.403c-12.234 0-22.165-9.922-22.165-22.165v-189.472c0-12.234 9.931-22.165 22.165-22.165h689.403c12.242 0 22.165 9.931 22.165 22.165v189.472c0 12.242-9.922 22.165-22.165 22.165zM534.355 470.19h132.987v-145.143h-132.987zM490.026 325.048h-132.987v145.143h132.987zM189.654 470.19h123.056v-145.143h-123.056zM834.727 325.048h-123.056v145.143h123.056zM856.892 826.961h-689.403c-12.234 0-22.165-9.922-22.165-22.165v-189.463c0-12.242 9.931-22.165 22.165-22.165h689.403c12.242 0 22.165 9.922 22.165 22.165v189.463c0 12.242-9.922 22.165-22.165 22.165zM534.355 782.632h132.987v-145.134h-132.987zM490.026 637.498h-132.987v145.134h132.987zM189.654 782.632h123.056v-145.134h-123.056zM834.727 637.498h-123.056v145.134h123.056z" />
<glyph unicode="&#xe903;" glyph-name="shopping-bag" d="M892.076 663.101h-181.774v103.722c0 106.692-86.493 193.177-193.177 193.177-106.692 0-193.177-86.484-193.177-193.177v-103.722h-193.177c-12.242 0-22.164-9.931-22.164-22.164v-505.461c0.121-110.112 89.359-199.35 199.48-199.48h406.674c110.121 0.13 199.358 89.368 199.48 199.48v505.461c0 12.234-9.922 22.164-22.164 22.164zM368.278 766.823c-0.208 53.316 28.121 102.666 74.259 129.385s103.039 26.719 149.177 0 74.467-76.069 74.259-129.385v-103.722h-297.696zM869.912 135.475c-0.104-85.645-69.506-155.047-155.151-155.151h-406.674c-85.645 0.104-155.056 69.506-155.151 155.151v483.297h171.012v-248.276c0-12.234 9.922-22.164 22.164-22.164s22.164 9.931 22.164 22.164v248.276h297.696v-248.276c0-12.234 9.922-22.164 22.164-22.164s22.164 9.931 22.164 22.164v248.276h159.61z" />
<glyph unicode="&#xe904;" glyph-name="shopping-basket" d="M956.335 704.952h-344.502v141.683c0 55.137-44.696 99.833-99.833 99.833s-99.833-44.696-99.833-99.833v-141.683h-344.502c-37.357-0.044-67.621-30.317-67.665-67.665v-138.414c0.044-37.357 30.308-67.63 67.665-67.665h11.621l33.648-360.238c6.229-69.692 64.775-123.022 134.749-122.74h528.643c69.974-0.282 128.511 53.048 134.74 122.74l33.648 360.238h11.621c37.357 0.035 67.621 30.308 67.665 67.665v138.414c-0.044 37.348-30.308 67.621-67.665 67.665zM457.278 846.634c0 30.22 24.502 54.722 54.722 54.722s54.722-24.502 54.722-54.722v-141.683h-109.445zM866.15 75.172c-4.15-46.467-43.181-82.018-89.833-81.833h-528.634c-46.652-0.185-85.683 35.366-89.833 81.833l-33.251 356.035h774.811zM978.89 498.872c-0.018-12.458-10.106-22.546-22.555-22.555h-888.67c-12.449 0.009-22.537 10.097-22.555 22.555v138.414c0.018 12.449 10.106 22.537 22.555 22.555h888.67c12.449-0.018 22.537-10.106 22.555-22.555zM512 115.665c12.458 0 22.555 10.106 22.555 22.555v160.978c0 12.458-10.097 22.555-22.555 22.555s-22.555-10.097-22.555-22.555v-160.978c0-12.449 10.097-22.555 22.555-22.555zM705.198 115.665c12.458 0 22.555 10.106 22.555 22.555v160.978c0 12.458-10.097 22.555-22.555 22.555-12.449 0-22.555-10.097-22.555-22.555v-160.978c0-12.449 10.106-22.555 22.555-22.555zM318.802 115.665c12.449 0 22.555 10.106 22.555 22.555v160.978c0 12.458-10.106 22.555-22.555 22.555-12.458 0-22.555-10.097-22.555-22.555v-160.978c0-12.449 10.097-22.555 22.555-22.555z" />
<glyph unicode="&#xe905;" glyph-name="shopping-basket-1" d="M1001.723 585.976h-38.954c-0.035 0-0.070 0.017-0.104 0.017-2.393 0.392-4.83 0.383-7.223-0.017h-34.82l-103.356 132.093c45.83 40.651 53.236 109.483 17.11 158.959s-103.939 63.392-156.626 32.122c-52.679-31.261-72.965-97.447-46.848-152.858 26.126-55.42 90.084-81.894 147.732-61.155l85.41-109.169h-716.372l85.419 109.169c58.066-20.991 122.572 5.631 148.942 61.46s5.953 122.563-47.144 154.076-121.458 17.467-157.836-32.418c-36.378-49.894-28.841-119.273 17.397-160.186l-103.356-132.093h-34.812c-2.393 0.4-4.839 0.409-7.232 0.026-0.035 0-0.070-0.017-0.104-0.026h-26.666c-12.306 0-22.279-9.974-22.279-22.279s9.974-22.279 22.279-22.279h11.479l67.622-414.094c13.724-93.391 86.046-158.602 175.938-158.602h457.086c89.892 0 162.214 65.211 175.938 158.602l67.613 414.094h23.768c12.306 0 22.279 9.974 22.279 22.279s-9.974 22.279-22.279 22.279zM663.589 807.43c0 41.287 33.463 74.749 74.749 74.749 41.278 0 74.749-33.463 74.749-74.749 0-41.278-33.471-74.749-74.749-74.749-41.261 0.052-74.706 33.489-74.749 74.749zM273.385 882.18c41.287 0 74.749-33.471 74.749-74.749 0-41.287-33.463-74.749-74.749-74.749-41.278 0-74.749 33.463-74.749 74.749 0.052 41.261 33.489 74.697 74.749 74.749zM866.332 134.321c-0.017-0.122-0.044-0.244-0.061-0.366-10.374-71.051-64.61-120.675-131.867-120.675h-457.086c-67.274 0-121.501 49.624-131.875 120.675-0.017 0.122-0.035 0.244-0.061 0.374l-66.473 407.088h853.904zM505.857 116.106c12.306 0 22.279 9.974 22.279 22.279v277.928c0 12.306-9.974 22.279-22.279 22.279s-22.279-9.974-22.279-22.279v-277.928c0-12.306 9.982-22.279 22.279-22.279zM333.905 116.106c12.306 0 22.279 9.974 22.279 22.279v277.928c0 12.306-9.974 22.279-22.279 22.279s-22.279-9.974-22.279-22.279v-277.928c0-12.306 9.974-22.279 22.279-22.279zM677.809 116.106c12.306 0 22.279 9.974 22.279 22.279v277.928c0 12.306-9.974 22.279-22.279 22.279s-22.279-9.974-22.279-22.279v-277.928c0-12.306 9.974-22.279 22.279-22.279z" />
<glyph unicode="&#xe906;" glyph-name="battery" d="M911.719 706.246h-694.009c-61.982-0.070-112.211-50.298-112.281-112.281v-18.482h-38.061c-37.193-0.044-67.325-30.184-67.368-67.368v-117.982c0.044-37.184 30.175-67.325 67.368-67.368h38.061v-18.482c0.070-61.982 50.298-112.211 112.281-112.281h694.009c61.982 0.070 112.211 50.298 112.281 112.281v289.684c-0.070 61.982-50.298 112.211-112.281 112.281zM67.368 367.675c-12.395 0.018-22.439 10.061-22.456 22.456v117.982c0.018 12.395 10.061 22.439 22.456 22.456h38.061v-162.895zM979.088 304.281c-0.044-37.193-30.175-67.325-67.368-67.368h-694.009c-37.193 0.044-67.325 30.175-67.368 67.368v289.684c0.044 37.193 30.175 67.325 67.368 67.368h694.009c37.193-0.044 67.325-30.175 67.368-67.368zM418.316 471.579h-39.325v39.325c0 12.404-10.053 22.456-22.456 22.456s-22.456-10.053-22.456-22.456v-39.325h-39.325c-12.404 0-22.456-10.053-22.456-22.456s10.053-22.456 22.456-22.456h39.325v-39.325c0-12.404 10.053-22.456 22.456-22.456s22.456 10.053 22.456 22.456v39.325h39.325c12.404 0 22.456 10.053 22.456 22.456s-10.053 22.456-22.456 22.456zM822.64 533.36c-12.404 0-22.456-10.053-22.456-22.456v-123.561c0-12.404 10.053-22.456 22.456-22.456s22.456 10.053 22.456 22.456v123.561c0 12.404-10.053 22.456-22.456 22.456z" />
<glyph unicode="&#xe907;" glyph-name="battery-1" d="M691.769 844.924h-49.733v46.809c-0.044 37.689-30.587 68.222-68.267 68.267h-134.258c-37.689-0.044-68.231-30.578-68.267-68.267v-46.809h-39.013c-62.809-0.071-113.707-50.969-113.778-113.778v-681.369c0.071-62.809 50.969-113.707 113.778-113.778h359.538c62.809 0.071 113.707 50.969 113.778 113.778v681.369c-0.071 62.809-50.969 113.707-113.778 113.778zM416.756 891.733c0.009 12.56 10.187 22.738 22.756 22.756h134.258c12.56-0.018 22.738-10.196 22.756-22.756v-46.809h-179.769zM760.036 49.778c-0.044-37.689-30.578-68.222-68.267-68.267h-359.538c-37.689 0.044-68.222 30.578-68.267 68.267v681.369c0.044 37.68 30.578 68.222 68.267 68.267h359.538c37.689-0.044 68.222-30.587 68.267-68.267zM688.809 572.898c-5.947 4.276-13.582 5.431-20.524 3.093l-327.040-109.76c-9.271-3.111-15.511-11.796-15.511-21.573v-355.867c0-12.569 10.187-22.756 22.756-22.756h327.022c12.569 0 22.756 10.187 22.756 22.756v465.636c0.009 7.316-3.511 14.196-9.458 18.471zM652.756 111.547h-281.511v316.756l281.511 94.489z" />
<glyph unicode="&#xe908;" glyph-name="bell" d="M823.434 316.823v165.389c0.341 81.956-31.854 160.697-89.522 218.93-40.16 40.891-91.109 69.538-146.909 82.612 39.503 41.43 38.224 106.957-2.857 146.817-41.090 39.852-106.624 39.138-146.834-1.603s-40.052-106.284 0.341-146.842c0.257-0.257 0.532-0.498 0.797-0.756-52.129-14.029-99.564-41.721-137.407-80.228-57.66-58.234-89.855-136.975-89.522-218.93v-164.301c-47.153-1.213-84.771-39.761-84.838-86.931v-78.434c0.050-48.025 38.964-86.947 86.989-86.997h148.802c10.466-74.297 74.048-129.549 149.076-129.549s138.611 55.252 149.076 129.549h148.802c48.017 0.050 86.939 38.972 86.989 86.989v78.442c-0.058 42.61-30.94 78.932-72.985 85.843zM780.907 317.961h-526.859v110.844h526.859zM511.551 917.797c34.096-0.033 61.73-27.667 61.772-61.772 0-34.113-27.659-61.764-61.772-61.764s-61.772 27.651-61.772 61.764c0.042 34.105 27.676 61.739 61.772 61.772zM331.303 671.241c49.114 49.878 116.185 77.96 186.179 77.96 70.003 0 137.074-28.083 186.188-77.96 49.77-50.285 77.545-118.269 77.238-189.028v-10.881h-526.859v10.881c-0.307 70.759 27.476 138.744 77.254 189.028zM587.9 10.115c-28.207-28.174-69.638-38.515-107.779-26.92s-66.797 43.249-74.555 82.354h211.97c-4.087-21.039-14.419-40.351-29.636-55.434zM853.892 152.547c-0.025-24.553-19.918-44.446-44.462-44.47h-595.758c-24.544 0.025-44.437 19.918-44.462 44.47v78.434c0.025 24.544 19.918 44.437 44.462 44.462h595.758c24.544-0.025 44.437-19.918 44.462-44.462z" />
<glyph unicode="&#xe909;" glyph-name="binocular" d="M1017.585 333.504l-2.193 6.63c-1.479 5.092-3.143 10.101-4.992 15.034l-123.219 371.153c-20.269 62.454-78.505 104.706-144.169 104.606-83.706 0-151.799-67.605-151.799-150.841l0.076-11.538h-164.883l-0.193 11.857c-0.101 83.017-68.152 150.522-151.791 150.522-65.664 0.101-123.9-42.151-144.169-104.606-0.025-0.084-0.050-0.16-0.076-0.235l-116.127-369.725c-30.74-81.101-10.092-172.715 52.454-232.783 62.555-60.068 154.934-76.992 234.716-42.992 79.782 33.992 131.564 112.345 131.564 199.068 0 4.933-0.176 9.815-0.504 14.664 0.084 0.84 0.126 1.689 0.118 2.529l-0.983 61.194h161.95l0.311-45.74c-13.101-86.034 26.605-171.547 100.799-217.043 74.185-45.496 168.404-42.126 239.153 8.555s104.244 138.816 85.034 223.69c-0.076 2.042-0.437 4.067-1.076 6zM743.012 787.901c47.067 0.059 88.799-30.261 103.295-75.042l84.883-255.682c-94.799 66.143-224.867 45.95-295.153-45.824l-1.798 268.867c-0.008 59.378 48.782 107.681 108.774 107.681zM591.574 625.522l0.782-116.522h-163.379l-1.882 116.522zM171.186 713.077c14.546 44.689 56.236 74.908 103.227 74.841 59.975 0 108.774-48.311 108.774-107.681v-0.345l4.319-267.934c-71.168 92.261-202.682 111.471-297.262 43.42zM216.388 106.292c-53.261-0.017-103.58 24.454-136.446 66.362-32.866 41.916-44.63 96.614-31.908 148.337l6.513 20.731c31.362 81.774 118.782 127.312 203.766 106.135 84.975-21.168 140.824-102.395 130.152-189.329-10.672-86.925-84.496-152.236-172.077-152.228zM430.717 401.075l-1.042 64.908h162.967l0.429-64.908zM807.601 106.284c-49.21-0.025-96.118 20.874-129.001 57.496-32.891 36.614-48.656 85.488-43.362 134.412 1.008 2.555 1.521 5.269 1.504 8.017l-0.017 2.529c13.135 77.261 76.479 136.102 154.505 143.505 78.017 7.412 151.303-38.454 178.749-111.866l3.983-11.992c15.387-52.395 5.168-108.984-27.572-152.698s-84.169-69.429-138.782-69.404zM216.388 373.949c-52.076 0-94.295-42.219-94.295-94.295s42.219-94.295 94.295-94.295c52.084 0 94.303 42.219 94.303 94.295-0.067 52.059-42.244 94.236-94.303 94.295zM216.388 228.385c-28.319 0-51.269 22.95-51.269 51.269s22.95 51.278 51.269 51.278c28.319 0 51.278-22.958 51.278-51.278-0.034-28.303-22.975-51.244-51.278-51.269zM807.601 373.949c-52.076 0-94.295-42.219-94.295-94.295s42.219-94.295 94.295-94.295c52.084 0 94.303 42.219 94.303 94.295-0.059 52.051-42.244 94.236-94.303 94.295zM807.601 228.385c-28.311-0.008-51.269 22.95-51.269 51.269s22.95 51.269 51.269 51.278c28.319 0 51.278-22.958 51.278-51.278-0.034-28.303-22.967-51.244-51.278-51.269z" />
<glyph unicode="&#xe90a;" glyph-name="sailboat" d="M998.398 311.998h-428.398v625.187c0 9.901-6.381 18.671-15.801 21.71-9.429 3.048-19.731-0.339-25.524-8.369l-349.312-484.616c-5.009-6.951-5.704-16.113-1.8-23.742 3.904-7.62 11.746-12.415 20.311-12.415h326.505v-117.738h-497.396c-7.647 0-14.785-3.832-19.019-10.204-4.224-6.372-4.973-14.447-2.005-21.487l137.782-326.211c3.547-8.404 11.764-13.885 20.881-13.939l689.043-4.171c9.055 0 17.254 5.356 20.89 13.653l144.742 330.391c3.084 7.050 2.406 15.186-1.8 21.63-4.215 6.443-11.399 10.329-19.099 10.329zM242.434 475.366l281.936 391.145v-391.145zM838.791-18.304l-658.857 3.993-48.152 114.022 757.024-3.841zM908.76 141.402l-796.3 4.037-51.076 120.92h902.105z" />
<glyph unicode="&#xe90b;" glyph-name="book" d="M866.357 802.148h-8.096v91.070c-0.043 36.87-29.922 66.739-66.783 66.783h-597.809c-27.009 0.009-52.922-10.678-72.087-29.722-19.33-18.748-30.27-44.522-30.313-71.452 0-1.391 0.026-2.783 0.078-4.165-0.052-0.626-0.078-1.27-0.078-1.913v-814.348c0.061-56.53 45.87-102.339 102.4-102.4h672.687c36.861 0.043 66.739 29.913 66.783 66.783v732.583c-0.043 36.87-29.922 66.739-66.783 66.783zM193.67 915.478h597.809c12.287-0.017 22.243-9.974 22.261-22.261v-91.070h-620.070c-32.452 0-57.878 24.896-57.878 56.67 0 30.713 26.504 56.661 57.878 56.661zM295.661 757.626h194.278v-392.539l-82.583 71.287c-8.357 7.209-20.739 7.209-29.096 0l-82.583-71.287v392.539zM888.617 2.783c-0.017-12.287-9.974-22.243-22.261-22.261h-672.687c-31.948 0.035-57.843 25.93-57.878 57.878v736.443c17.165-11.348 37.304-17.339 57.878-17.217h57.47v-411.991c0-13.93 8.122-26.583 20.791-32.391 12.661-5.8 27.557-3.687 38.104 5.417l82.765 71.461 82.774-71.461c6.417-5.6 14.643-8.696 23.157-8.713 5.165 0.009 10.261 1.139 14.939 3.296 12.739 5.73 20.887 18.435 20.791 32.391v411.991h331.887c12.296-0.009 22.252-9.965 22.261-22.261v-732.583z" />
<glyph unicode="&#xe90c;" glyph-name="bookmark" d="M849.992 960h-676.498c-13.971 0-25.313-11.331-25.313-25.313v-948.024c-0.020-18.994 10.59-36.397 27.478-45.078 16.898-8.672 37.227-7.159 52.642 3.925l283.441 203.183 283.451-203.173c15.425-11.064 35.734-12.567 52.622-3.896 16.878 8.672 27.498 26.064 27.498 45.039v948.024c0 13.981-11.341 25.313-25.322 25.313zM824.679-13.327l-298.174 213.743c-8.82 6.318-20.685 6.318-29.495 0l-298.184-213.753v922.712h625.853z" />
<glyph unicode="&#xe90d;" glyph-name="briefcase" d="M912.21 734.777h-168.279v53.066c-0.070 61.712-50.079 111.721-111.79 111.79h-225.878c-61.712-0.070-111.721-50.079-111.79-111.79v-53.066h-182.681c-61.712-0.070-111.721-50.079-111.79-111.79v-513.913c0.070-61.703 50.079-111.712 111.79-111.79h800.419c61.712 0.079 111.721 50.087 111.79 111.79v513.913c-0.070 61.712-50.079 111.721-111.79 111.79zM339.188 787.843c0.044 37.031 30.044 67.031 67.074 67.074h225.878c37.031-0.044 67.031-30.044 67.074-67.074v-53.066h-360.026zM699.214 690.061v-648.061h-360.026v648.061zM44.716 109.074v513.913c0.044 37.022 30.044 67.031 67.074 67.074h182.681v-648.061h-182.681c-37.031 0.044-67.031 30.052-67.074 67.074zM979.284 109.074c-0.044-37.022-30.044-67.031-67.074-67.074h-168.279v648.061h168.279c37.031-0.044 67.031-30.052 67.074-67.074z" />
<glyph unicode="&#xe90e;" glyph-name="brightness" d="M509.176 709.303c-142.849 0-258.655-115.798-258.655-258.647 0-142.857 115.798-258.655 258.655-258.655 142.849 0 258.647 115.798 258.647 258.647-0.16 142.79-115.866 258.496-258.647 258.655zM509.176 235.025c-119.084 0-215.63 96.538-215.63 215.622 0 119.092 96.546 215.63 215.63 215.63s215.622-96.538 215.622-215.63c-0.134-119.025-96.588-215.487-215.622-215.622zM838.63 810.529l-62.303-62.303c-8.403-8.403-8.403-22.025 0-30.429 8.395-8.395 22.017-8.395 30.42 0l62.303 62.311c8.403 8.395 8.403 22.017 0 30.42-8.395 8.403-22.017 8.403-30.42 0zM211.597 183.504l-62.303-62.311c-8.403-8.395-8.403-22.017 0-30.42s22.025-8.403 30.42 0l62.311 62.303c8.403 8.403 8.403 22.025 0 30.429-8.403 8.395-22.025 8.403-30.429 0zM505.202 824.176c11.874 0 21.513 9.639 21.513 21.513v92.798c0 11.882-9.639 21.513-21.513 21.513-11.882 0-21.513-9.63-21.513-21.513v-92.798c0-11.874 9.63-21.513 21.513-21.513zM505.202 71.824c-11.882 0-21.513-9.639-21.513-21.513v-92.798c0-11.882 9.63-21.513 21.513-21.513 11.874 0 21.513 9.63 21.513 21.513v92.798c0 11.874-9.639 21.513-21.513 21.513zM179.723 810.529c-8.403 8.403-22.025 8.403-30.429 0s-8.403-22.025 0-30.42l62.303-62.311c8.403-8.395 22.025-8.395 30.429 0 8.403 8.403 8.403 22.025 0 30.429zM806.748 183.504c-8.403 8.403-22.025 8.403-30.429 0-8.395-8.403-8.395-22.025 0-30.429l62.311-62.303c8.403-8.403 22.017-8.403 30.42 0s8.403 22.025 0 30.429zM107.504 469.513h-79.538c-11.882 0-21.513-9.63-21.513-21.513s9.63-21.513 21.513-21.513h79.538c11.882 0 21.513 9.63 21.513 21.513s-9.63 21.513-21.513 21.513zM995.689 469.513h-92.798c-11.882 0-21.513-9.63-21.513-21.513s9.63-21.513 21.513-21.513h92.798c11.874 0 21.513 9.63 21.513 21.513s-9.639 21.513-21.513 21.513z" />
<glyph unicode="&#xe90f;" glyph-name="browser" d="M918.448 930.31h-812.896c-58.268-0.066-105.487-47.293-105.553-105.553v-751.535c0.066-58.268 47.284-105.487 105.553-105.553h812.896c58.268 0.066 105.487 47.284 105.553 105.553v751.535c-0.066 58.268-47.284 105.487-105.553 105.553zM105.553 888.089h812.896c34.956-0.041 63.29-28.376 63.332-63.332v-161.372h-939.559v161.372c0.041 34.956 28.367 63.29 63.332 63.332zM918.448 9.891h-812.896c-34.964 0.033-63.29 28.367-63.332 63.332v547.942h939.559v-547.942c-0.041-34.964-28.376-63.299-63.332-63.332zM317.186 708.6c37.075 0 67.133 30.058 67.133 67.133s-30.058 67.133-67.133 67.133-67.133-30.058-67.133-67.133c0.041-37.059 30.074-67.092 67.133-67.133zM317.186 800.645c13.763 0 24.912-11.149 24.912-24.912 0-13.755-11.149-24.912-24.912-24.912-13.755 0-24.912 11.157-24.912 24.912 0.016 13.755 11.165 24.896 24.912 24.912zM475.086 708.6c37.075 0 67.133 30.058 67.133 67.133s-30.058 67.133-67.133 67.133-67.133-30.058-67.133-67.133c0.041-37.059 30.074-67.092 67.133-67.133zM475.086 800.645c13.763 0 24.912-11.149 24.912-24.912 0-13.755-11.149-24.912-24.912-24.912-13.755 0-24.912 11.157-24.912 24.912 0.016 13.755 11.165 24.896 24.912 24.912zM159.286 708.6c37.075 0 67.133 30.058 67.133 67.133s-30.058 67.133-67.133 67.133-67.133-30.058-67.133-67.133c0.041-37.059 30.074-67.092 67.133-67.133zM159.286 800.645c13.755 0 24.912-11.149 24.912-24.912 0-13.755-11.157-24.912-24.912-24.912s-24.912 11.157-24.912 24.912c0.016 13.755 11.157 24.896 24.912 24.912z" />
<glyph unicode="&#xe910;" glyph-name="paint-brush" d="M910.462 960h-423.57c-6.944 0-13.429-3.443-17.33-9.184l-90.347-133.186-79.74 132.237c-3.787 6.289-10.583 10.133-17.927 10.133h-168.296c-11.564 0-20.937-9.373-20.937-20.937v-502.803c0.074-69.353 56.268-125.547 125.621-125.621h92.605c46.225-0.057 83.69-37.523 83.747-83.747v-173.588c-0.106-64.683 52.244-117.197 116.927-117.304s117.205 52.244 117.304 116.927l0.564 174.234c0.237 46.11 37.637 83.396 83.747 83.477h92.948c69.345 0.074 125.539 56.268 125.621 125.621v502.803c0 11.564-9.381 20.937-20.937 20.937zM269.722 918.126l90.527-150.115c3.688-6.117 10.239-9.929 17.371-10.117 7.14-0.196 13.879 3.263 17.886 9.168l102.484 151.064h391.535v-365.585h-755.337v365.585zM889.526 436.26c-0.057-46.233-37.523-83.698-83.747-83.747h-92.948c-69.165-0.131-125.269-56.055-125.621-125.22l-0.564-174.226c-0.065-41.563-33.81-75.193-75.364-75.127s-75.193 33.81-75.119 75.364v173.588c-0.082 69.345-56.276 125.539-125.621 125.621h-92.605c-46.233 0.049-83.698 37.515-83.747 83.747v74.408h755.337z" />
<glyph unicode="&#xe911;" glyph-name="building" d="M1003.451 15.616h-59.679v543.563c0 7.889-4.518 15.080-11.629 18.507l-219.061 105.602v33.451c-0.040 34.021-27.608 61.597-61.637 61.637v82.183c-0.040 34.021-27.608 61.597-61.637 61.637h-185.706c-34.021-0.040-61.597-27.616-61.637-61.637v-82.183c-34.021-0.040-61.597-27.616-61.637-61.637v-317.921l-199.101-97.335c-7.055-3.443-11.525-10.61-11.525-18.459v-267.4h-49.655c-11.348 0-20.546-9.197-20.546-20.546s9.197-20.546 20.546-20.546h982.905c11.348 0 20.546 9.197 20.546 20.546s-9.197 20.546-20.546 20.546zM902.681 546.274v-530.65h-189.599v622.039zM383.555 860.56c0.016 11.34 9.205 20.53 20.546 20.546h185.706c11.34-0.016 20.538-9.205 20.546-20.546v-82.183h-226.798zM342.464 737.286h308.981c11.34-0.016 20.538-9.205 20.546-20.546v-701.116h-350.072v701.116c0.016 11.34 9.205 20.53 20.546 20.546zM111.292 270.199l169.535 82.881v-337.464h-169.535zM401.669 495.592h200.594c11.348 0 20.546 9.197 20.546 20.546v101.276c0 11.348-9.197 20.546-20.546 20.546h-200.594c-11.348 0-20.546-9.197-20.546-20.546v-101.276c0-11.348 9.197-20.546 20.546-20.546zM422.215 596.868h159.502v-60.185h-159.502zM401.669 294.998h200.594c11.348 0 20.546 9.197 20.546 20.546v101.268c0 11.348-9.197 20.546-20.546 20.546h-200.594c-11.348 0-20.546-9.197-20.546-20.546v-101.268c0-11.348 9.197-20.546 20.546-20.546zM422.215 396.266h159.502v-60.177h-159.502zM401.669 94.396h200.594c11.348 0 20.546 9.205 20.546 20.546v101.276c0 11.348-9.197 20.546-20.546 20.546h-200.594c-11.348 0-20.546-9.197-20.546-20.546v-101.276c0-11.34 9.197-20.546 20.546-20.546zM422.215 195.673h159.502v-60.185h-159.502z" />
<glyph unicode="&#xe912;" glyph-name="idea" d="M737.889 869.768c-124.139 123.472-324.704 123.472-448.843 0l-5.62-5.62c-100.12-98.158-124.852-249.973-61.065-374.825 28.232-56.463 53.269-107.972 62.713-127.509 1.481-3.056 2.796-6.194 3.944-9.398l50.306-140.834c1.833-5.12 2.769-10.519 2.759-15.944v-175.269c0.056-45.259 36.732-81.945 82-82h177.639c45.269 0.056 81.954 36.732 82 82v175.269c0 5.426 0.935 10.824 2.759 15.944l49.972 139.908c1.315 3.685 2.861 7.296 4.63 10.796l63.546 125.991c62.435 125.398 37.852 276.658-61.083 375.834zM601.722-14.223h-177.639c-19.102 0.019-34.574 15.5-34.593 34.593v141.241h246.824v-141.241c-0.019-19.093-15.491-34.574-34.593-34.593zM762.195 509.462l-63.454-125.833c-2.648-5.25-4.963-10.667-6.944-16.204l-49.963-139.898c-2.139-6-3.667-12.204-4.565-18.509h-100.667v359.093h39.139c13.093 0 23.704 10.611 23.704 23.704s-10.611 23.704-23.704 23.704h-125.333c-13.093 0-23.704-10.611-23.704-23.704s10.611-23.704 23.704-23.704h38.787v-359.093h-100.676c-0.889 6.306-2.417 12.5-4.556 18.5l-50.306 140.843c-1.722 4.806-3.694 9.519-5.926 14.111-9.481 19.602-34.63 71.333-63.065 128.204-54.445 106.537-33.324 236.084 52.139 319.806l0.102 0.102 5.667 5.657c105.62 104.963 276.176 104.963 381.806 0l5.657-5.648c84.5-84.759 105.491-213.982 52.157-321.13z" />
<glyph unicode="&#xe913;" glyph-name="school-bus" d="M923.158 509.483l-59.062 10.87v127.727c-0.072 67.968-55.15 123.046-123.126 123.126h-638.365c-56.641-0.064-102.541-45.964-102.605-102.605v-381.074c0.040-33.988 27.575-61.523 61.563-61.563h21.483c6.517-57.683 55.311-101.275 113.363-101.275s106.846 43.591 113.363 101.275h404.657c6.517-57.691 55.311-101.283 113.363-101.283s106.854 43.591 113.363 101.283h21.283c33.988 0.040 61.523 27.575 61.563 61.563v100.858c0.008 59.407-42.413 110.349-100.842 121.098zM633.419 528.361v98.301h189.635v-98.309zM407.687 528.361v98.301h184.689v-98.309zM592.377 487.319v-220.313h-184.689v220.305zM366.645 528.361h-192.337c-11.327 0.008-20.505 9.186-20.521 20.521v57.259c0.016 11.335 9.194 20.513 20.521 20.521h192.337v-98.309zM196.409 165.731c-40.353 0-73.058 32.705-73.058 73.050 0 40.353 32.705 73.058 73.058 73.058 40.345 0 73.050-32.705 73.050-73.058-0.048-40.329-32.721-73.002-73.050-73.050zM196.409 352.882c-52.128-0.072-97.603-35.399-110.565-85.884h-24.281c-11.327 0.008-20.505 9.186-20.521 20.521v381.074c0.040 33.98 27.575 61.523 61.563 61.563h638.365c37.756-0.056 70.629-25.812 79.695-62.461h-646.357c-33.98-0.040-61.523-27.583-61.563-61.563v-57.275c0.040-33.98 27.583-61.523 61.563-61.563h192.337v-220.289h-59.671c-12.962 50.485-58.437 85.812-110.565 85.884zM827.8 165.731c-40.353 0-73.058 32.705-73.058 73.050 0 40.353 32.705 73.058 73.058 73.058 40.345 0 73.050-32.705 73.050-73.058-0.048-40.321-32.729-73.002-73.050-73.050zM982.958 287.527c-0.016-11.335-9.194-20.513-20.521-20.521h-24.072c-12.906 50.525-58.421 85.884-110.565 85.884-52.152 0-97.667-35.359-110.565-85.884h-83.816v220.305h206.365c4.994-3.695 10.774-6.196 16.89-7.327l59.054-10.878c38.95-7.166 67.23-41.122 67.23-80.721z" />
<glyph unicode="&#xe914;" glyph-name="birthday-cake" d="M773.142 540.674h-159.614v150.57c0 12.031-9.75 21.781-21.781 21.781h-159.622c-12.031 0-21.781-9.75-21.781-21.781v-150.57h-159.614c-48.829 0-87.081-44.625-87.081-101.596v-90.612c-0.026-25.414 10.482-49.705 29.021-67.096v-323.592c0-12.022 9.75-21.781 21.781-21.781h594.97c12.031 0 21.781 9.759 21.781 21.781v322.954c18.735 17.518 29.26 42.082 29.021 67.725v105.127c-0.051 48.071-39.010 87.030-87.081 87.090zM453.906 669.462h116.060v-128.789h-116.060zM207.219 439.069c0 32.544 19.118 58.034 43.519 58.034h522.403c24.027-0.026 43.494-19.501 43.519-43.528v-105.119c0-24.623-16.991-44.617-39.521-46.497-0.204-0.009-0.4-0.034-0.604-0.051-11.758-1.463-23.585 2.212-32.433 10.099-9.368 8.619-14.634 20.811-14.481 33.548 0 12.022-9.759 21.781-21.781 21.781-12.031 0-21.781-9.759-21.781-21.781 0.111-15.621-8.159-30.111-21.67-37.947-13.511-7.845-30.187-7.845-43.698 0-13.511 7.836-21.781 22.326-21.67 37.947 0 12.022-9.759 21.781-21.781 21.781-12.031 0-21.781-9.759-21.781-21.781 0-24.036-19.484-43.519-43.519-43.519s-43.519 19.484-43.519 43.519c0 12.022-9.75 21.781-21.781 21.781s-21.781-9.759-21.781-21.781c0.111-15.621-8.159-30.111-21.67-37.947-13.511-7.845-30.187-7.845-43.698 0-13.511 7.836-21.781 22.326-21.67 37.947 0 12.022-9.75 21.781-21.781 21.781s-21.781-9.759-21.781-21.781c-0.051-12.082-5.199-23.585-14.175-31.676-8.959-8.406-21.007-12.728-33.267-11.928-21.832 1.906-39.597 22.768-39.597 46.506zM236.232-20.442v113.261h551.408v-113.261zM787.64 136.381h-551.408v123.097c2.314-0.408 4.654-0.732 7.028-0.944 24.427-1.761 48.488 6.713 66.432 23.389 2.161 2.008 4.212 4.109 6.16 6.296 16.48-18.863 40.295-29.702 65.343-29.745s48.905 10.72 65.445 29.532c16.514-18.778 40.303-29.532 65.3-29.532s48.786 10.754 65.3 29.532c16.421-18.675 40.048-29.421 64.918-29.532 24.861-0.111 48.582 10.431 65.173 28.953 2.399-2.791 4.977-5.42 7.725-7.879 15.459-13.919 35.547-21.585 56.35-21.5 3.225 0.009 6.449 0.179 9.657 0.528 2.221 0.196 4.407 0.493 6.577 0.851zM451.388 783.914c15.936-16.285 37.759-25.457 60.544-25.457 22.776 0 44.6 9.172 60.544 25.457 0.119 0.119 0.238 0.238 0.349 0.366 32.289 34.518 32.289 88.153 0 122.68l-0.153 0.162-45.144 46.302c-4.092 4.203-9.716 6.577-15.596 6.577-5.871 0-11.495-2.374-15.596-6.577l-45.298-46.463c-32.289-34.526-32.289-88.162 0-122.688 0.119-0.119 0.23-0.238 0.349-0.357zM482.468 876.807l29.464 30.213 29.464-30.213c16.038-17.646 16.089-44.574 0.102-62.271-7.751-8.015-18.42-12.541-29.566-12.541s-21.815 4.526-29.557 12.541c-15.987 17.697-15.936 44.625 0.102 62.271z" />
<glyph unicode="&#xe915;" glyph-name="birthday-cake-1" d="M449.533 772.523c35.592-35.267 92.951-35.267 128.543 0 0.108 0.108 0.208 0.217 0.317 0.325 35.025 36.425 34.959 94.026-0.142 130.376l-49.184 50.35c-4.017 4.108-9.517 6.425-15.258 6.425-5.75 0-11.25-2.317-15.267-6.425l-49.325-50.5c-34.992-36.359-34.992-93.876 0-130.234 0.108-0.1 0.217-0.208 0.317-0.317zM479.883 873.416l33.925 34.725 33.775-34.584c19.067-19.809 19.142-51.125 0.158-71.017-18.883-18.4-48.992-18.4-67.876 0-18.95 19.825-18.942 51.059 0.017 70.876zM867.62 481.304h-242.052v204.427c-0.033 23.55-19.117 42.634-42.667 42.667h-138.185c-23.559-0.033-42.642-19.117-42.667-42.667v-204.427h-242.060c-58.876-0.067-106.593-47.784-106.668-106.668v-416.137c0-11.767 9.533-21.317 21.309-21.334l878.333-1.167c11.783 0 21.334 9.55 21.334 21.334v417.304c-0.067 58.884-47.792 106.601-106.676 106.668zM95.988 228.527c32.159 6.617 51.2 27.6 67.017 45.067 17.683 19.525 30.459 33.634 58.034 33.634 26.7 0 39.292-13.908 56.717-33.15 19.233-21.234 43.167-47.659 89.667-47.659 45.617 0 69.309 26.159 88.342 47.175 17.683 19.525 30.459 33.634 58.026 33.634 26.7 0 39.292-13.908 56.717-33.15 19.233-21.234 43.167-47.659 89.667-47.659 45.617 0 69.309 26.159 88.342 47.175 17.683 19.525 30.459 33.634 58.034 33.634 27.375 0 39.942-13.983 57.325-33.334 15.842-17.633 34.934-38.85 67.726-45.417v-126.426c-14.083 5.35-23.875 16.208-35.992 29.7-19.008 21.15-42.667 47.475-89.059 47.475-46.509 0-70.426-26.425-89.659-47.659-17.433-19.242-30.025-33.15-56.717-33.15-27.575 0-40.359 14.108-58.042 33.634-19.033 21.017-42.725 47.175-88.342 47.175-46.492 0-70.434-26.425-89.659-47.659-17.433-19.242-30.025-33.15-56.725-33.15-27.575 0-40.35 14.108-58.034 33.634-19.033 21.017-42.725 47.175-88.342 47.175-46.5 0-70.434-26.425-89.659-47.659-12.025-13.275-21.742-24-35.384-29.384zM444.708 685.731h138.185v-204.427h-138.185zM159.989 438.637h707.639c35.325-0.042 63.959-28.675 64.001-64.001v-101.926c-14.083 5.358-23.875 16.217-35.992 29.7-19.008 21.159-42.667 47.475-89.059 47.475-46.509 0-70.434-26.417-89.659-47.65-17.433-19.25-30.025-33.15-56.717-33.15-27.584 0-40.359 14.108-58.042 33.634-19.033 21.017-42.725 47.167-88.342 47.167-46.5 0-70.434-26.417-89.659-47.65-17.433-19.242-30.025-33.15-56.725-33.15-27.575 0-40.35 14.108-58.026 33.634-19.033 21.017-42.725 47.167-88.342 47.167-46.5 0-70.434-26.417-89.659-47.65-12.025-13.275-21.75-24.009-35.392-29.384v101.784c0.042 35.317 28.659 63.951 63.976 64.001zM95.988-20.192v78.051c32.159 6.617 51.2 27.6 67.017 45.067 17.683 19.525 30.459 33.634 58.034 33.634 26.7 0 39.292-13.908 56.717-33.15 19.233-21.234 43.167-47.659 89.667-47.659 45.617 0 69.309 26.159 88.342 47.175 17.683 19.525 30.459 33.634 58.026 33.634 26.7 0 39.292-13.908 56.717-33.15 19.233-21.234 43.167-47.659 89.667-47.659 45.617 0 69.309 26.159 88.342 47.175 17.683 19.525 30.459 33.634 58.034 33.634 27.375 0 39.942-13.983 57.325-33.334 15.842-17.633 34.934-38.85 67.726-45.417v-79.117z" />
<glyph unicode="&#xe916;" glyph-name="calculator" d="M859.733 960h-695.467c-58.883-0.067-106.6-47.783-106.667-106.667v-810.667c0.067-58.883 47.783-106.6 106.667-106.667h695.467c58.883 0.067 106.6 47.783 106.667 106.667v810.667c-0.067 58.883-47.783 106.6-106.667 106.667zM923.733 42.667c-0.042-35.333-28.667-63.958-64-64h-695.467c-35.333 0.042-63.958 28.667-64 64v810.667c0.042 35.333 28.667 63.958 64 64h695.467c35.333-0.042 63.958-28.667 64-64zM196.267 649.6h619.733c11.783 0 21.333 9.55 21.333 21.333v140.8c0 11.783-9.55 21.333-21.333 21.333h-619.733c-11.783 0-21.333-9.55-21.333-21.333v-140.8c0-11.783 9.55-21.333 21.333-21.333zM217.6 790.4h577.067v-98.133h-577.067zM332.8 586.667h-136.533c-11.783 0-21.333-9.55-21.333-21.333v-105.6c0-11.783 9.55-21.333 21.333-21.333h136.533c11.783 0 21.333 9.55 21.333 21.333v105.6c0 11.783-9.55 21.333-21.333 21.333zM311.467 481.067h-93.867v62.933h93.867zM332.8 398.933h-136.533c-11.783 0-21.333-9.55-21.333-21.333v-105.6c0-11.783 9.55-21.333 21.333-21.333h136.533c11.783 0 21.333 9.55 21.333 21.333v105.6c0 11.783-9.55 21.333-21.333 21.333zM311.467 293.333h-93.867v62.933h93.867zM332.8 211.2h-136.533c-11.783 0-21.333-9.55-21.333-21.333v-105.6c0-11.783 9.55-21.333 21.333-21.333h136.533c11.783 0 21.333 9.55 21.333 21.333v105.6c0 11.783-9.55 21.333-21.333 21.333zM311.467 105.6h-93.867v62.933h93.867zM582.4 586.667h-140.8c-11.783 0-21.333-9.55-21.333-21.333v-105.6c0-11.783 9.55-21.333 21.333-21.333h140.8c11.783 0 21.333 9.55 21.333 21.333v105.6c0 11.783-9.55 21.333-21.333 21.333zM561.067 481.067h-98.133v62.933h98.133zM582.4 398.933h-140.8c-11.783 0-21.333-9.55-21.333-21.333v-105.6c0-11.783 9.55-21.333 21.333-21.333h140.8c11.783 0 21.333 9.55 21.333 21.333v105.6c0 11.783-9.55 21.333-21.333 21.333zM561.067 293.333h-98.133v62.933h98.133zM582.4 211.2h-140.8c-11.783 0-21.333-9.55-21.333-21.333v-105.6c0-11.783 9.55-21.333 21.333-21.333h140.8c11.783 0 21.333 9.55 21.333 21.333v105.6c0 11.783-9.55 21.333-21.333 21.333zM561.067 105.6h-98.133v62.933h98.133zM827.733 586.667h-136.533c-11.783 0-21.333-9.55-21.333-21.333v-105.6c0-11.783 9.55-21.333 21.333-21.333h136.533c11.783 0 21.333 9.55 21.333 21.333v105.6c0 11.783-9.55 21.333-21.333 21.333zM806.4 481.067h-93.867v62.933h93.867zM827.733 398.933h-136.533c-11.783 0-21.333-9.55-21.333-21.333v-293.333c0-11.783 9.55-21.333 21.333-21.333h136.533c11.783 0 21.333 9.55 21.333 21.333v293.333c0 11.783-9.55 21.333-21.333 21.333zM806.4 105.6h-93.867v250.667h93.867z" />
<glyph unicode="&#xe917;" glyph-name="calendar" d="M890.821 887.962h-76.769v48.706c0 12.887-10.445 23.332-23.332 23.332-12.878 0-23.332-10.445-23.332-23.332v-48.715h-506.584v48.715c0 12.887-10.445 23.332-23.332 23.332s-23.332-10.445-23.332-23.332v-48.715h-76.769c-64.401-0.073-116.588-52.261-116.661-116.661v-718.634c0.073-64.392 52.261-116.579 116.661-116.661h572.68c5.924 0 11.611 2.251 15.941 6.289l274.090 256.199c4.721 4.42 7.401 10.591 7.401 17.053v555.764c-0.073 64.401-52.261 116.588-116.661 116.661zM137.38 841.297h76.76v-69.833c0-12.887 10.445-23.332 23.332-23.332s23.332 10.445 23.332 23.332v69.833h506.593v-69.833c0-12.887 10.445-23.332 23.332-23.332s23.332 10.445 23.332 23.332v69.833h76.769c38.635-0.046 69.951-31.362 69.997-69.997v-138.608h-893.444v138.608c0.036 38.635 31.353 69.951 69.997 69.997zM67.383 52.666v533.361h893.435v-348.098h-185.145c-51.522-0.055-93.265-41.807-93.329-93.329v-161.922h-544.964c-38.635 0.046-69.951 31.353-69.997 69.988zM924.015 191.256l-195.007-182.274v135.619c0.027 25.766 20.908 46.637 46.665 46.665z" />
<glyph unicode="&#xe918;" glyph-name="calendar-1" d="M354.606 484.308h-140.063c-12.787 0-23.167-10.371-23.167-23.167v-128.389c0-12.796 10.38-23.167 23.167-23.167h140.063c12.796 0 23.167 10.371 23.167 23.167v128.389c0 12.796-10.371 23.167-23.167 23.167zM331.439 355.919h-93.729v82.054h93.729zM809.448 425.946h-303.104c-12.796 0-23.167-10.371-23.167-23.167s10.371-23.167 23.167-23.167h303.104c12.796 0 23.167 10.371 23.167 23.167s-10.371 23.167-23.167 23.167zM354.606 227.529h-140.063c-12.787 0-23.167-10.371-23.167-23.167v-128.389c0-12.796 10.38-23.167 23.167-23.167h140.063c12.796 0 23.167 10.371 23.167 23.167v128.389c0 12.796-10.371 23.167-23.167 23.167zM331.439 99.14h-93.729v82.054h93.729zM809.448 169.167h-303.104c-12.796 0-23.167-10.371-23.167-23.167 0-12.787 10.371-23.167 23.167-23.167h303.104c12.796 0 23.167 10.38 23.167 23.167 0 12.796-10.371 23.167-23.167 23.167zM908.163 817.729h-25.602v20.67c0 60.76-49.258 110.018-110.018 110.018s-110.009-49.258-110.009-110.018v-20.67h-301.059v20.67c-0.281 60.57-49.457 109.511-110.018 109.511s-109.738-48.941-110.018-109.511v-20.67h-25.602c-63.946-0.072-115.765-51.891-115.837-115.837v-638.471c0.072-63.946 51.891-115.765 115.837-115.837h792.326c63.946 0.072 115.765 51.891 115.837 115.837v638.471c-0.072 63.946-51.891 115.765-115.837 115.837zM708.86 838.398c0.045 35.158 28.534 63.647 63.683 63.683 35.149-0.045 63.638-28.525 63.683-63.683v-86.842h-127.367zM187.774 838.398c0 35.176 28.507 63.683 63.683 63.683 35.167 0 63.674-28.507 63.674-63.683v-86.842h-127.357zM115.837 771.394h25.602v-43.005c0-12.796 10.371-23.167 23.167-23.167h173.692c12.796 0 23.167 10.371 23.167 23.167v43.005h301.059v-43.005c0-12.796 10.371-23.167 23.167-23.167h173.701c12.796 0 23.167 10.371 23.167 23.167v43.005h25.602c38.371-0.045 69.457-31.131 69.502-69.502v-114.95h-931.33v114.95c0.045 38.371 31.131 69.457 69.502 69.502zM908.163-6.081h-792.326c-38.371 0.045-69.457 31.131-69.502 69.502v477.186h931.33v-477.186c-0.045-38.371-31.131-69.457-69.502-69.502z" />
<glyph unicode="&#xe919;" glyph-name="calendar-2" d="M906.881 838.904h-62.752v52.815c0 12.938-10.486 23.424-23.424 23.424s-23.424-10.486-23.424-23.424v-52.815h-557.858v52.815c0 12.938-10.486 23.424-23.424 23.424s-23.424-10.486-23.424-23.424v-52.815h-75.452c-64.655-0.073-117.049-52.467-117.122-117.122v-621.808c0.073-64.655 52.467-117.049 117.122-117.122h789.759c64.655 0.073 117.049 52.467 117.122 117.122v621.808c-0.073 64.655-52.467 117.049-117.122 117.122zM977.154 99.974c-0.046-38.797-31.486-70.237-70.273-70.273h-789.759c-38.797 0.037-70.227 31.477-70.273 70.273v621.808c0.046 38.797 31.477 70.227 70.273 70.273h75.452v-40.105c0-12.938 10.486-23.424 23.424-23.424s23.424 10.486 23.424 23.424v40.105h557.858v-40.105c0-12.938 10.486-23.424 23.424-23.424s23.424 10.486 23.424 23.424v40.105h62.752c38.788-0.046 70.227-31.477 70.273-70.273zM224.737 510.541h383.941c12.938 0 23.424 10.486 23.424 23.424 0 12.929-10.486 23.424-23.424 23.424h-383.941c-12.938 0-23.424-10.495-23.424-23.424 0-12.938 10.486-23.424 23.424-23.424zM799.266 307.243h-574.529c-12.938 0-23.424-10.486-23.424-23.424s10.486-23.424 23.424-23.424h574.538c12.929 0 23.424 10.486 23.424 23.424s-10.495 23.424-23.424 23.424z" />
<glyph unicode="&#xe91a;" glyph-name="shopping-cart" d="M999.442 704.471h-786.802l-22.932 133.439c-8.824 50.4-47.849 90.107-98.086 99.813l-62.312 11.845c-8.651 1.707-17.542-1.352-23.316-8.018-5.774-6.656-7.529-15.902-4.604-24.217s10.080-14.425 18.75-16.007l62.322-11.845c30.135-5.822 53.556-29.646 58.84-59.886l112.569-655.041c-48.156-18.060-79.355-64.921-77.447-116.319 1.909-51.407 36.493-95.823 85.868-110.257 49.374-14.444 102.441 4.335 131.741 46.612 29.31 42.277 28.274 98.556-2.57 139.721h308.358c-33.050-44.147-31.564-105.193 3.597-147.691 35.17-42.488 94.854-55.368 144.411-31.161 49.566 24.208 76.094 79.211 64.192 133.065s-59.147 92.552-114.286 93.617c-2.513 0.844-5.131 1.276-7.778 1.276h-487.776l-22.961 133.592h527.367c51.436 0.125 97.377 32.187 115.235 80.43l100.666 274.003c2.772 7.538 1.688 15.95-2.906 22.529s-12.113 10.502-20.141 10.502zM295.89-7.56c-38.834 0-70.321 31.487-70.321 70.33 0 38.834 31.487 70.33 70.321 70.33 38.843 0 70.33-31.497 70.33-70.33-0.038-38.824-31.506-70.292-70.33-70.33zM865.725 62.771c0-38.843-31.487-70.33-70.321-70.33-38.843 0-70.33 31.487-70.33 70.33 0 38.834 31.487 70.33 70.33 70.33 38.814-0.048 70.282-31.506 70.321-70.33zM875.729 414.365c-10.713-28.945-38.277-48.185-69.141-48.262h-535.797l-49.71 289.262h743.182z" />
<glyph unicode="&#xe91b;" glyph-name="money" d="M937.532 759.386h-851.059c-47.736-0.057-86.415-38.736-86.472-86.472v-448.795c0.049-47.736 38.736-86.423 86.472-86.472h851.059c47.728 0.049 86.415 38.736 86.472 86.464v448.803c-0.057 47.736-38.744 86.415-86.472 86.472zM981.994 224.111c-0.033-24.541-19.922-44.43-44.463-44.454h-851.059c-24.549 0.025-44.438 19.913-44.463 44.454v448.803c0.025 24.541 19.913 44.43 44.463 44.463h851.059c24.541-0.033 44.43-19.922 44.463-44.463zM896.039 559.432c-56.754 0.919-94.743 29.751-96.794 73.451-0.525 11.208-9.764 20.020-20.98 20.020h-531.345c-11.216 0-20.455-8.812-20.98-20.020-2.043-43.691-40.508-72.524-97.975-73.443-11.471-0.189-20.668-9.542-20.668-21.005v-179.836c0-11.471 9.198-20.824 20.668-21.005 58.403-0.944 95.941-29.078 97.975-73.426 0.509-11.216 9.756-20.045 20.98-20.045h530.155c11.224 0 20.463 8.812 20.988 20.020 2.043 43.691 40.5 72.524 97.975 73.451 11.471 0.181 20.668 9.534 20.668 21.005v179.836c0 11.471-9.206 20.816-20.668 20.996zM874.69 378.241c-30.974-3.643-57.788-14.408-78.398-31.622-18.789-15.499-31.958-36.758-37.456-60.487h-493.553c-11.101 50.083-54.785 84.889-115.977 92.101v140.551c30.974 3.643 57.796 14.416 78.398 31.63 18.798 15.499 31.958 36.75 37.464 60.479h494.874c10.109-43.962 47.129-84.314 114.656-92.125v-140.526zM511.998 574.84c-69.767 0-126.324-56.557-126.324-126.324s56.557-126.324 126.324-126.324 126.324 56.557 126.324 126.324c-0.074 69.734-56.59 126.242-126.324 126.324zM511.998 364.203c-46.563 0-84.314 37.743-84.314 84.314 0 46.563 37.751 84.314 84.314 84.314 46.571 0 84.314-37.751 84.314-84.314-0.049-46.547-37.767-84.265-84.314-84.314z" />
<glyph unicode="&#xe91c;" glyph-name="money-1" d="M797.611 603.405c-48.411 0.78-80.805 25.092-82.527 61.943-0.548 11.706-10.198 20.91-21.913 20.91h-470.98c-11.715 0-21.365-9.204-21.913-20.91-1.723-36.842-34.536-61.146-83.59-61.943-11.981-0.189-21.587-9.958-21.587-21.939v-159.399c0-11.981 9.607-21.75 21.587-21.939 49.851-0.806 81.876-24.527 83.59-61.917 0.531-11.715 10.19-20.936 21.913-20.936h469.926c11.715 0 21.365 9.213 21.913 20.91 1.731 36.842 34.536 61.146 83.59 61.943 11.981 0.189 21.587 9.958 21.587 21.939v159.407c0 11.981-9.615 21.742-21.596 21.93zM775.321 442.404c-26.866-3.625-50.185-13.283-68.302-28.4-16.505-13.635-28.298-32.12-33.688-52.842h-432.228c-10.824 43.629-48.968 74.069-102.118 81.242v118.726c26.866 3.634 50.185 13.283 68.302 28.409 16.505 13.626 28.298 32.12 33.688 52.842h433.419c9.89-38.564 42.558-73.529 100.927-81.276zM457.157 617.066c-63.682 0-115.298-51.625-115.298-115.298s51.616-115.29 115.298-115.29c63.674 0 115.29 51.616 115.29 115.29-0.069 63.648-51.65 115.221-115.29 115.298zM457.157 430.363c-39.447 0-71.421 31.974-71.421 71.421 0 39.438 31.983 71.412 71.421 71.412 39.447-0.009 71.412-31.983 71.412-71.429-0.043-39.421-31.991-71.37-71.412-71.412zM944.035 670.944h-29.729v29.729c-0.051 44.143-35.822 79.922-79.965 79.965h-754.376c-44.143-0.043-79.914-35.822-79.965-79.965v-397.811c0.051-44.143 35.822-79.914 79.965-79.965h29.729v-29.729c0.051-44.143 35.822-79.914 79.965-79.965h754.376c44.143 0.051 79.914 35.822 79.965 79.965v397.811c-0.051 44.143-35.822 79.922-79.965 79.965zM43.878 302.861v397.811c0.026 19.925 16.163 36.070 36.088 36.088h754.376c19.925-0.017 36.062-16.163 36.088-36.088v-397.811c-0.026-19.916-16.163-36.062-36.088-36.088h-754.376c-19.925 0.026-36.062 16.171-36.088 36.088zM980.122 193.168c-0.026-19.916-16.163-36.062-36.088-36.088h-754.376c-19.925 0.026-36.062 16.171-36.088 36.088v29.729h680.77c44.143 0.051 79.914 35.822 79.965 79.965v324.205h29.729c19.925-0.017 36.070-16.163 36.088-36.088z" />
<glyph unicode="&#xe91d;" glyph-name="money-2" d="M937.532 856.008h-851.059c-47.736-0.057-86.415-38.736-86.472-86.472v-448.795c0.049-47.736 38.736-86.423 86.472-86.472h408.722v-103.637c0-59.486 106.492-90.616 211.672-90.616 53.127 0 103.497 7.565 141.831 21.284 57.525 20.578 70.858 48.458 71.916 68.208 0.016 0.377 0.033 0.747 0.033 1.124v103.637h16.886c47.728 0.049 86.415 38.736 86.472 86.464v448.803c-0.057 47.736-38.744 86.415-86.472 86.472zM537.203 283.975c40.926-22.851 106.303-34.6 171.188-34.6 64.393 0 129.253 11.569 170.245 34.075v-45.324h-1.157c0-3.922-7.598-16.894-42.305-29.677-34.141-12.562-79.908-19.487-128.884-19.487-109.405 0-169.088 32.475-169.088 49.148zM878.636 343.994v-6.933c-7.803-16.024-65.467-45.669-170.245-45.669-112.941 0-171.188 34.444-171.188 49.148s58.247 49.164 171.188 49.164c104.786 0 162.45-29.653 170.245-45.677zM780.152 426.798c-23.778 3.298-47.753 4.939-71.761 4.907-76.807 0-154.294-16.467-191.102-48.327l-252.024-0.583c-11.101 50.058-54.785 84.839-115.952 92.060v140.551c30.966 3.643 57.788 14.416 78.39 31.63 18.798 15.499 31.958 36.75 37.464 60.479h494.874c10.109-43.962 47.129-84.314 114.656-92.125v-140.543c-40.171-4.775-73.393-21.653-94.546-48.048zM706.866 82.026c-48.557 0-93.947 6.868-127.8 19.331-30.498 11.224-41.862 23.917-41.862 29.275v50.157c8.779-4.825 17.928-8.952 27.355-12.348 37.849-13.858 88.179-21.489 141.732-21.489 53.8 0 104.728 7.836 143.398 22.071 9.985 3.618 19.667 8.049 28.947 13.235v-50.879c-1.789-16.984-63.137-49.353-171.771-49.353zM981.994 320.741c-0.033-24.549-19.922-44.438-44.463-44.463h-16.886v54.768c0.624 3.126 0.944 6.31 0.944 9.493 0 35.585-37.899 61.078-90.886 75.904 16.886 11.085 39.359 17.353 65.336 17.772 11.462 0.189 20.66 9.534 20.66 21.005v179.836c0 11.471-9.198 20.816-20.66 21.005-56.754 0.911-94.743 29.743-96.794 73.443-0.525 11.208-9.764 20.028-20.98 20.028h-531.345c-11.216 0-20.455-8.82-20.98-20.020-2.043-43.691-40.508-72.524-97.975-73.451-11.471-0.181-20.668-9.534-20.668-21.005v-179.836c0-11.471 9.198-20.816 20.668-21.005 58.403-0.944 95.941-29.070 97.975-73.426 0.509-11.208 9.756-20.045 20.98-20.045h0.049l248.241 0.583c0-0.263-0.016-0.525-0.016-0.788 0-0.615 0.025-1.223 0.049-1.83-0.016-0.336-0.049-0.673-0.049-1.017v-61.414h-408.722c-24.541 0.033-44.43 19.913-44.463 44.463v448.795c0.025 24.541 19.913 44.43 44.463 44.463h851.059c24.541-0.033 44.43-19.922 44.463-44.463zM511.998 671.462c-69.767 0-126.324-56.557-126.324-126.324s56.557-126.324 126.324-126.324 126.324 56.557 126.324 126.324c-0.074 69.734-56.59 126.242-126.324 126.324zM511.998 460.824c-46.563 0-84.314 37.751-84.314 84.314 0 46.571 37.751 84.314 84.314 84.314 46.571 0 84.322-37.751 84.314-84.314-0.049-46.547-37.767-84.265-84.314-84.314z" />
<glyph unicode="&#xe91e;" glyph-name="cctv" d="M932.422 712.342c4.912 29.28-14.129 57.215-43.178 63.353l-601.52 127.139c-12.746 2.691-25.262-5.456-27.953-18.202l-62.671-296.47c-2.691-12.755 5.456-25.271 18.211-27.962l290.295-61.362v-179.745c-0.028-22.11-17.944-40.026-40.054-40.045h-209.293v61.639c-0.028 28.838-23.4 52.201-52.229 52.229h-180.437c-13.032 0-23.594-10.562-23.594-23.594v-354.993c0-13.032 10.562-23.594 23.594-23.594h180.437c28.838 0.037 52.201 23.4 52.229 52.229v61.639h209.302c118.402 0.129 214.362 96.089 214.491 214.491v142.871l136.761-28.902c29.133-6.175 57.934 11.815 65.15 40.708 6.608-1.115 13.308-1.687 20.018-1.696 57.602 0.23 107.25 40.57 119.268 96.9 6.885 31.676 0.719 64.791-17.105 91.868-16.635 25.529-42.22 43.897-71.721 51.501zM301.059 851.784l151-31.916-52.902-250.305-151 31.916zM209.072 42.962c0-2.783-2.258-5.041-5.041-5.051h-156.843v307.815h156.843c2.783 0 5.041-2.258 5.041-5.041zM632.864 319.092c-0.101-92.366-74.947-167.211-167.313-167.313h-209.293v80.080h209.293c48.155 0.055 87.177 39.077 87.232 87.232v169.773l80.080-16.93zM826.572 479.225l-381.25 80.587 52.902 250.305 381.25-80.578c4.442-0.94 7.281-5.309 6.341-9.751l-49.501-234.214c-0.949-4.442-5.299-7.281-9.742-6.35zM975.111 578.853c-7.318-34.57-37.732-59.39-73.076-59.62-3.419 0.009-6.829 0.258-10.221 0.737l30.884 146.087c17.244-4.995 32.137-16.018 41.953-31.059 10.894-16.543 14.663-36.782 10.46-56.146z" />
<glyph unicode="&#xe91f;" glyph-name="certificate" d="M652.158 954.649c-3.807 3.443-8.753 5.351-13.886 5.351h-412.948c-45.69-0.048-82.708-37.074-82.764-82.764v-712.338c0.057-45.682 37.074-82.708 82.764-82.764h145.929v-125.44c0-8.074 4.696-15.413 12.035-18.8 7.331-3.378 15.963-2.174 22.105 3.071l107.206 91.736 107.197-91.728c6.143-5.254 14.775-6.45 22.105-3.071 7.339 3.378 12.035 10.717 12.035 18.792v125.44h145.929c45.69 0.057 82.716 37.082 82.764 82.764v572.092c0 5.844-2.473 11.42-6.814 15.34zM658.656 892.964l148.741-134.54h-128.050c-11.42 0.016-20.675 9.271-20.691 20.691zM512.598 239.991c-67.65 0-122.498 54.839-122.498 122.489s54.847 122.489 122.498 122.489c67.65 0 122.489-54.839 122.489-122.489-0.073-67.618-54.872-122.417-122.489-122.489zM526.047 75.659c-7.743 6.62-19.155 6.62-26.898 0l-86.515-74.035v231.134c58.864-45.537 141.063-45.537 199.927 0v-231.126zM799.864 123.515h-145.92v156.201c40.38 68.838 25.298 156.759-35.724 208.212-61.022 51.445-150.228 51.445-211.251 0-61.022-51.453-76.104-139.374-35.716-208.212v-156.201h-145.929c-22.841 0.024-41.358 18.541-41.382 41.382v712.338c0.024 22.841 18.541 41.358 41.382 41.382h391.95v-139.503c0.040-34.261 27.812-62.033 62.073-62.073h161.899v-552.144c-0.024-22.841-18.533-41.358-41.382-41.382z" />
<glyph unicode="&#xe920;" glyph-name="certificate-1" d="M874.865 960c-5.35-0.009-10.701-0.367-16.005-1.055h-688.517c-81.245-0.092-147.073-65.929-147.165-147.165v-674.816c0-12.977 10.517-23.494 23.494-23.494h206.477l-4.405-153.305c-0.257-8.7 4.332-16.831 11.921-21.126 7.58-4.286 16.914-4.029 24.246 0.679l104.776 67.186 104.785-67.186c7.314-4.699 16.629-4.965 24.209-0.697 7.571 4.267 12.169 12.371 11.958 21.062l-3.864 153.396h245.948c12.977 0 23.494 10.517 23.494 23.494v400.4h180.799c12.967 0 23.494 10.517 23.494 23.494v275.049c-0.11 32.836-13.399 64.249-36.892 87.201-23.494 23.613-55.439 36.883-88.752 36.883zM389.687 298.877c-84.338 0-152.708 68.37-152.708 152.708s68.37 152.708 152.708 152.708 152.708-68.37 152.708-152.708c-0.092-84.301-68.407-152.616-152.708-152.708zM402.379 54.599c-7.736 4.965-17.648 4.965-25.375 0l-80.025-51.319 7.69 267.661c54.219-25.577 117.073-25.393 171.136 0.505l6.745-268.267zM749.23 835.915v-675.458h-223.629l-3.561 141.769c62.258 55.091 83.861 142.999 54.255 220.674-29.615 77.685-104.253 128.893-187.389 128.563-83.127-0.321-157.361-52.117-186.361-130.031s-6.699-165.639 55.99-220.243l-4.047-140.723h-184.323v651.313c0.064 55.302 44.876 100.114 100.178 100.178h605.813c-17.372-21.539-26.871-48.373-26.926-76.042zM953.523 584.36h-157.306v251.555c0 37.672 29.275 70.059 66.259 76.088 1.56 0.046 3.12 0.257 4.634 0.615 2.579 0.266 5.167 0.395 7.755 0.395 42.637 0 78.658-35.314 78.658-77.097z" />
<glyph unicode="&#xe921;" glyph-name="chair" d="M856.96 540.477v329.208c-0.062 49.858-40.456 90.262-90.315 90.315h-508.514c-49.858-0.053-90.262-40.456-90.315-90.315v-329.208l-68.089-180.4c-0.961-2.549-1.455-5.248-1.455-7.973v-393.522c0-12.471 10.107-22.579 22.579-22.579s22.579 10.107 22.579 22.579v207.451h737.917v-207.451c0-12.471 10.107-22.579 22.579-22.579s22.579 10.107 22.579 22.579v393.522c0 2.725-0.494 5.424-1.455 7.973zM258.131 914.843h508.514c24.925-0.026 45.131-20.233 45.157-45.157v-316.084h-598.829v316.084c0.026 24.925 20.233 45.131 45.157 45.157zM203.995 508.444h616.795l52.504-139.088h-721.804zM143.429 211.19v112.999h737.917v-112.999z" />
<glyph unicode="&#xe922;" glyph-name="chat" d="M908.163 904.398h-792.326c-63.946-0.072-115.765-51.891-115.837-115.837v-462.208c0.072-63.946 51.891-115.765 115.837-115.837h45.43c38.371-0.045 69.457-31.131 69.502-69.502v-128.29c0-8.76 4.95-16.778 12.787-20.706 7.846-3.928 17.231-3.095 24.253 2.154l270.959 202.516c12.027 8.95 26.615 13.801 41.611 13.828h327.783c63.946 0.072 115.765 51.891 115.837 115.837v462.208c-0.072 63.946-51.891 115.765-115.837 115.837zM977.665 326.353c-0.045-38.362-31.131-69.457-69.502-69.502h-327.783c-24.995-0.045-49.303-8.127-69.357-23.050l-233.919-174.833v82.054c-0.072 63.946-51.891 115.765-115.837 115.837h-45.43c-38.371 0.045-69.457 31.131-69.502 69.502v462.199c0.045 38.371 31.131 69.457 69.502 69.502h792.326c38.371-0.045 69.457-31.131 69.502-69.502zM238.742 655.647c-59.167 0-107.131-47.973-107.122-107.14 0-59.167 47.973-107.131 107.14-107.131 59.167 0.009 107.131 47.973 107.131 107.14-0.072 59.14-48 107.068-107.149 107.131zM238.742 487.719c-33.575 0-60.796 27.222-60.787 60.805 0 33.575 27.222 60.796 60.805 60.796 33.575-0.009 60.796-27.231 60.796-60.805-0.036-33.566-27.249-60.769-60.814-60.796zM509.448 655.647c-59.167 0-107.131-47.964-107.131-107.131s47.964-107.14 107.131-107.14c59.176 0 107.14 47.973 107.14 107.14-0.072 59.14-48 107.059-107.14 107.131zM509.448 487.719c-33.575 0-60.796 27.222-60.796 60.796 0 33.584 27.222 60.805 60.796 60.805 33.584 0 60.805-27.222 60.805-60.805-0.036-33.566-27.24-60.76-60.805-60.796zM780.181 655.647c-59.176 0-107.14-47.964-107.14-107.131s47.964-107.14 107.14-107.14c59.167 0 107.131 47.973 107.131 107.14-0.072 59.14-48 107.059-107.131 107.131zM780.181 487.719c-33.584 0-60.805 27.222-60.805 60.796 0 33.584 27.222 60.805 60.805 60.805 33.575 0 60.796-27.222 60.796-60.805-0.036-33.566-27.24-60.76-60.796-60.796z" />
<glyph unicode="&#xe923;" glyph-name="chat-1" d="M899.122 955.005h-774.244c-68.937-0.078-124.8-55.941-124.878-124.878v-565.717c0.078-68.937 55.941-124.8 124.878-124.878h360.4l235.737-191.698c7.473-6.078 17.785-7.317 26.498-3.18 8.702 4.137 14.244 12.927 14.244 22.566v172.312h137.366c68.937 0.078 124.8 55.941 124.878 124.878v565.717c-0.078 68.937-55.941 124.8-124.878 124.878zM974.049 264.41c-0.049-41.356-33.561-74.878-74.927-74.927h-162.341c-13.795 0-24.976-11.18-24.976-24.976v-144.79l-201.893 164.166c-4.449 3.62-10.010 5.6-15.756 5.6h-369.278c-41.366 0.039-74.878 33.561-74.927 74.927v565.717c0.049 41.366 33.561 74.878 74.927 74.927h774.244c41.366-0.049 74.878-33.561 74.927-74.927zM177.278 702.8h287.932c13.795 0 24.976 11.18 24.976 24.976 0 13.785-11.18 24.976-24.976 24.976h-287.932c-13.785 0-24.976-11.19-24.976-24.976 0-13.795 11.19-24.976 24.976-24.976zM846.722 572.254h-669.444c-13.785 0-24.976-11.18-24.976-24.976s11.19-24.976 24.976-24.976h669.434c13.795 0 24.976 11.18 24.976 24.976s-11.18 24.976-24.976 24.976zM846.722 391.746h-669.444c-13.785 0-24.976-11.18-24.976-24.976s11.19-24.976 24.976-24.976h669.434c13.795 0 24.976 11.18 24.976 24.976s-11.18 24.976-24.976 24.976z" />
<glyph unicode="&#xe924;" glyph-name="chef" d="M805.112 755.44c-32.326 91.801-106.353 162.778-199.438 191.203-93.077 28.425-194.126 10.923-272.225-47.149-49.203-36.633-86.479-86.995-107.14-144.76-7.312-3.43-20.407-8.787-29.783-12.633-25.656-10.507-37.203-15.448-43.756-20.127-27.747-18.805-52.66-41.466-74-67.303-0.226-0.262-0.434-0.534-0.643-0.796-61.475-79.321-80.217-183.719-50.163-279.465 30.045-95.746 105.077-170.714 200.85-200.687v-168.217c0.045-38.371 31.131-69.466 69.502-69.502h425.646c38.362 0.036 69.457 31.131 69.502 69.502v167.882c127.9 40.235 216.162 159.040 216.162 293.157 0.163 66.081-21.204 130.407-60.86 183.257-36.398 48.633-86.389 85.393-143.656 105.638zM723.954-17.662h-425.646c-12.787 0.009-23.149 10.371-23.167 23.167v160.968h471.998v-160.968c-0.018-12.796-10.389-23.158-23.185-23.167zM769.51 214.636l-4.842-1.204c-0.697-0.181-1.385-0.389-2.054-0.624h-127.656l38.118 136.28c3.439 12.326-3.756 25.104-16.072 28.552-12.326 3.448-25.104-3.747-28.552-16.072l-41.602-148.76h-51.918v188.859c0 12.787-10.371 23.167-23.167 23.167s-23.167-10.38-23.167-23.167v-188.859h-52.67l-41.131 126.515c-3.964 12.163-17.032 18.823-29.204 14.869-12.163-3.955-18.823-17.032-14.869-29.194l36.48-112.19h-126.28c-0.706 0.244-1.43 0.462-2.172 0.643-85.574 20.851-154.787 83.602-183.9 166.723-29.122 83.131-14.181 175.348 39.683 245.040 18.543 22.443 40.208 42.127 64.317 58.461 0.244 0.154 0.48 0.317 0.724 0.498 4.317 2.67 22.471 10.109 34.516 15.041 39.882 16.344 50.063 20.516 53.783 33.828 17.023 51.647 49.565 96.787 93.203 129.248 44.787 33.448 99.212 51.475 155.113 51.375 115.185 0 214.995-73.674 248.37-183.321 2.253-7.394 8.036-13.176 15.421-15.421 108.995-33.584 183.348-134.325 183.312-248.37 0-117.348-79.665-220.904-193.782-251.918z" />
<glyph unicode="&#xe925;" glyph-name="cursor" d="M1023.905 397.692c-0.845 9.521-7.249 17.634-16.31 20.667l-654.806 219.276c-8.648 2.901-18.188 0.657-24.629-5.793-6.451-6.451-8.695-15.981-5.803-24.629l219.276-654.806c3.042-9.061 11.155-15.465 20.676-16.31 0.704-0.066 1.418-0.094 2.122-0.094 8.789 0 16.883 4.808 21.089 12.526l99.014 181.483 181.831-180.732c9.399-9.343 24.582-9.315 33.944 0.056l110.338 110.328c9.361 9.371 9.39 24.545 0.047 33.944l-180.732 181.831 181.502 99.014c8.404 4.582 13.286 13.709 12.441 23.239zM778.835 302.34c-6.629-3.624-11.183-10.16-12.263-17.643-1.089-7.484 1.408-15.042 6.742-20.404l186.403-187.549-76.441-76.441-187.539 186.413c-5.361 5.333-12.92 7.831-20.404 6.742s-14.019-5.634-17.643-12.272l-87.953-161.22-186.46 556.797 556.797-186.46zM127.804 866.197c-9.39 9.39-24.61 9.39-34 0s-9.39-24.61 0-34l78.122-78.122c9.39-9.38 24.61-9.38 34 0 9.39 9.39 9.38 24.61 0 34zM434.113 769.099c1.793-13.155 13.906-22.366 27.061-20.573s22.366 13.906 20.573 27.061l-22.319 163.624c-1.793 13.155-13.906 22.357-27.061 20.573-13.155-1.793-22.366-13.915-20.573-27.070zM190.902 525.888l-163.615 22.329c-13.155 1.793-25.277-7.418-27.061-20.573-1.793-13.155 7.418-25.268 20.573-27.061l163.615-22.319c1.089-0.15 2.178-0.225 3.277-0.225 12.648 0 23.136 9.803 23.981 22.422 0.854 12.62-8.225 23.737-20.761 25.437z" />
<glyph unicode="&#xe926;" glyph-name="wall-clock" d="M511.998 959.998c-207.082 0-393.778-124.752-473.026-316.072s-35.44-411.54 110.99-557.971c199.944-199.944 524.127-199.944 724.080 0 199.944 199.953 199.944 524.136 0 724.080-95.816 96.33-226.183 150.33-362.045 149.963zM511.998-17.026c-256.421 0-465.026 208.605-465.026 465.026 0 256.412 208.605 465.026 465.026 465.026 256.412 0 465.026-208.614 465.026-465.026 0-256.421-208.614-465.026-465.026-465.026zM531.448 457.725v205.219c0 12.972-10.514 23.486-23.486 23.486s-23.486-10.514-23.486-23.486v-214.944c0-6.229 2.477-12.202 6.881-16.615l104.954-104.963c9.174-9.174 24.046-9.174 33.22 0 9.165 9.174 9.165 24.046 0 33.211z" />
<glyph unicode="&#xe927;" glyph-name="coding" d="M638.105 953.324c-4.533 4.286-10.533 6.676-16.771 6.676h-404.343c-67.295-0.076-121.829-54.61-121.905-121.905v-780.19c0.076-67.295 54.61-121.829 121.905-121.905h590.21c67.295 0.076 121.829 54.61 121.905 121.905v609.276c0 6.695-2.752 13.095-7.619 17.705zM649.514 875.343l192.41-182.267h-168.029c-13.457 0.019-24.371 10.924-24.381 24.381zM807.2-15.238h-590.21c-40.381 0.048-73.095 32.762-73.143 73.143v780.19c0.048 40.381 32.762 73.095 73.143 73.143h383.752v-193.781c0.048-40.371 32.771-73.095 73.143-73.143h206.448v-586.41c-0.038-40.371-32.762-73.095-73.133-73.143zM652.714 413c-5.571 6.781-14.352 10.048-23 8.552-8.638-1.495-15.819-7.514-18.79-15.771s-1.276-17.467 4.438-24.124l62.895-74.971-62.895-74.971c-5.714-6.657-7.41-15.876-4.438-24.133 2.971-8.248 10.152-14.276 18.79-15.762 8.648-1.495 17.429 1.771 23 8.552l76.067 90.638c7.6 9.067 7.6 22.286 0 31.343zM345.924 306.686l62.905 74.971c5.714 6.657 7.41 15.867 4.438 24.124s-10.152 14.276-18.8 15.771c-8.638 1.495-17.419-1.771-22.99-8.552l-76.057-90.648c-7.6-9.057-7.6-22.276 0-31.343l76.057-90.638c5.571-6.781 14.352-10.048 22.99-8.552 8.648 1.486 15.829 7.514 18.8 15.762 2.971 8.257 1.276 17.476-4.438 24.133zM538.667 481.857c-13.305 2.019-25.743-7.133-27.762-20.448l-45.829-302.133c-2.029-13.314 7.133-25.743 20.448-27.762 1.219-0.19 2.448-0.286 3.686-0.286 12.038 0.019 22.267 8.819 24.076 20.724l45.829 302.143c2.029 13.314-7.133 25.743-20.448 27.762z" />
<glyph unicode="&#xe928;" glyph-name="coffee" d="M762.634 551.142c-4.63 75.436-42.789 144.846-104.006 189.173s-139.065 58.923-212.181 39.781l-27.126 125.846c-7.655 36.083-42.613 59.545-78.906 52.965l-73.595-13.084c-11.706-2.076-19.495-13.243-17.42-24.941s13.243-19.495 24.949-17.42l73.595 13.092c13.487 2.437 26.47-6.277 29.319-19.689l28.319-131.384c-84.914-38.882-141.51-121.384-147.224-214.609-37.856-8.79-64.671-42.495-64.73-81.36 0-42.932 30.428-77.309 71.083-82.738l17.033-341.262c3.109-61.377 53.797-109.544 115.258-109.51h227.004c61.469-0.034 112.158 48.142 115.258 109.536l17.134 341.262c40.134 5.529 70.52 39.066 72.057 79.553s-26.218 76.234-65.822 84.788zM434.573 731.063c0.143 0.034 0.277 0.042 0.429 0.076 2.168 0.462 4.244 1.26 6.168 2.361 61.234 21.47 128.955 13.361 183.391-21.958 54.436-35.31 89.452-93.847 94.813-158.51h-417.74c6.739 79.839 58.301 148.896 132.939 178.030zM307.827 386.011h405.454l-7.47-148.762h-390.556zM624.006-20.973h-227.004c-38.537-0.017-70.318 30.176-72.276 68.663l-7.319 146.527h386.245l-7.361-146.501c-1.941-38.495-33.739-68.713-72.284-68.688zM744.987 429.027h-468.966c-22.075 0-39.369 17.79-39.369 40.487 0.294 22.243 18.252 40.201 40.495 40.495h467.84c22.361 0 40.487-18.126 40.487-40.495 0-22.361-18.126-40.487-40.487-40.487z" />
<glyph unicode="&#xe929;" glyph-name="coffee-1" d="M509.927 468.172c-75.329-0.009-136.387-61.075-136.387-136.396 0-75.329 61.067-136.396 136.396-136.396s136.396 61.067 136.396 136.396c-0.086 75.295-61.11 136.31-136.404 136.396zM509.927 239.424c-51.002 0-92.344 41.351-92.344 92.353s41.351 92.353 92.353 92.353 92.353-41.351 92.353-92.353c-0.060-50.985-41.376-92.292-92.361-92.353zM785.368 848.052l-0.525 11.114c-0.017 0.335-0.043 0.671-0.069 1.006-5.092 56.688-52.714 100.052-109.626 99.828h-330.434c-56.912 0.224-104.533-43.14-109.626-99.828-0.034-0.335-0.052-0.671-0.069-1.006l-0.542-11.389c-53.755-8.258-93.471-54.469-93.54-108.86v-64.731c0-12.155 9.858-22.021 22.021-22.021h34.753l30.951-611.621c2.933-58.589 51.303-104.576 109.97-104.542h342.589c58.667-0.034 107.045 45.953 109.97 104.542l30.951 611.63h36.895c12.155 0 22.021 9.858 22.021 22.021v64.723c-0.077 55.209-40.972 101.841-95.69 109.135zM344.714 915.957h330.434c33.961 0.129 62.443-25.617 65.729-59.424l0.353-7.51h-462.606l0.361 7.51c3.286 33.806 31.768 59.553 65.729 59.424zM249.385 502.521h521.092l-17.239-340.765h-486.606zM681.221-19.956h-342.589c-35.2-0.017-64.224 27.57-65.987 62.727l-3.785 74.942h482.142l-3.794-74.942c-1.755-35.157-30.787-62.753-65.987-62.727zM772.705 546.564h-525.548l-5.342 105.6h536.223zM837.015 696.207h-652.034v42.71c0.043 36.473 29.591 66.021 66.064 66.064h519.905c36.473-0.043 66.021-29.591 66.064-66.064z" />
<glyph unicode="&#xe92a;" glyph-name="compass" d="M512.39 960c-207.053 0-393.708-124.722-472.94-316.012-79.232-191.281-35.44-411.457 110.962-557.868 199.88-200.084 524.151-200.169 724.133-0.187 199.99 199.982 199.906 524.253-0.187 724.133-95.793 96.311-226.135 150.298-361.969 149.933zM843.622 116.849c-82.347-82.806-192.835-131.598-309.501-136.691v78.579c0 11.994-9.736 21.731-21.731 21.731-12.003 0-21.731-9.736-21.731-21.731v-78.579c-241.635 11.222-434.988 204.574-446.209 446.209h78.579c12.003 0 21.731 9.728 21.731 21.731 0 11.994-9.728 21.731-21.731 21.731h-78.579c11.222 241.627 204.574 434.988 446.209 446.201v-78.57c0-12.003 9.728-21.731 21.731-21.731 11.994 0 21.731 9.728 21.731 21.731v78.57c241.627-11.213 434.988-204.574 446.201-446.201h-78.579c-11.994 0-21.731-9.736-21.731-21.731 0-12.003 9.736-21.731 21.731-21.731h78.579c-5.085-116.675-53.885-227.162-136.7-309.51zM723.526 688.247l-297.677-143.474c-4.431-2.131-8.005-5.704-10.144-10.135l-143.474-297.685c-4.007-8.327-2.317-18.276 4.21-24.804 6.536-6.536 16.485-8.225 24.804-4.21l297.685 143.474c4.431 2.131 8.005 5.713 10.144 10.144l143.465 297.685c4.015 8.319 2.326 18.267-4.21 24.804-6.528 6.528-16.476 8.217-24.804 4.202zM441.562 488.189l110.92-110.92-214.107-103.187zM583.21 407.998l-110.911 110.911 214.098 103.195z" />
<glyph unicode="&#xe92b;" glyph-name="computer" d="M625.413 597.749v42.451c0 65.316-52.759 118.455-117.614 118.455s-117.614-53.138-117.614-118.455v-46.176c-20.649-10.984-33.552-32.465-33.577-55.849v-125.458c0.041-34.928 28.353-63.24 63.281-63.281h184.216c34.928 0.041 63.24 28.353 63.281 63.281v125.458c-0.033 26.721-16.826 50.551-41.973 59.573zM507.799 716.467c41.874-0.28 75.616-34.401 75.427-76.267v-38.743h-150.853v38.743c-0.181 41.866 33.56 75.987 75.427 76.267zM625.199 412.717c-0.016-11.643-9.451-21.077-21.094-21.094h-184.216c-11.643 0.016-21.077 9.451-21.094 21.094v125.458c0.016 11.643 9.451 21.077 21.094 21.094h184.216c11.643-0.016 21.077-9.451 21.094-21.094zM939.619 895.764h-855.244c-46.579-0.049-84.326-37.796-84.375-84.375v-531.192c0.049-46.579 37.796-84.326 84.375-84.375h231.718l-49.546-152.246h-59.153c-11.651 0-21.094-9.443-21.094-21.094s9.443-21.094 21.094-21.094h596.244c11.651 0 21.094 9.443 21.094 21.094s-9.443 21.094-21.094 21.094h-59.153l-49.546 152.246h244.687c46.571 0.049 84.317 37.796 84.375 84.375v531.192c-0.049 46.579-37.804 84.326-84.383 84.375zM700.123 43.577h-389.213l49.554 152.246h290.121zM981.807 280.198c-0.025-23.294-18.894-42.163-42.187-42.187h-855.244c-23.286 0.025-42.163 18.894-42.187 42.187v531.192c0.025 23.286 18.902 42.163 42.187 42.187h855.244c23.286-0.025 42.163-18.902 42.187-42.187z" />
<glyph unicode="&#xe92c;" glyph-name="computer-1" d="M912.21 935.406h-800.419c-61.712-0.070-111.721-50.079-111.79-111.79v-510.262c0.070-61.712 50.079-111.721 111.79-111.79h214.638v-83.467h-122.725c-12.341 0-22.358-10.009-22.358-22.358v-111.79c0-12.349 10.017-22.358 22.358-22.358h616.585c12.349 0 22.358 10.009 22.358 22.358v111.79c0 12.349-10.009 22.358-22.358 22.358h-134.812v83.467h226.734c61.712 0.070 111.721 50.079 111.79 111.79v510.262c-0.070 61.712-50.079 111.721-111.79 111.79zM797.939 6.306h-571.878v67.074h571.869v-67.074zM640.76 118.096h-269.616v83.467h269.624v-83.467zM979.284 313.354c-0.044-37.022-30.044-67.031-67.074-67.074h-800.419c-37.031 0.044-67.031 30.052-67.074 67.074v510.262c0.044 37.031 30.044 67.031 67.074 67.074h800.419c37.031-0.044 67.031-30.044 67.074-67.074zM892.83 838.69h-761.659c-12.349 0-22.358-10.009-22.358-22.358v-483.607c0-12.349 10.009-22.358 22.358-22.358h761.668c12.341 0 22.358 10.009 22.358 22.358v483.607c0 12.349-10.017 22.358-22.367 22.358zM870.472 355.083h-716.943v438.891h716.952v-438.891z" />
<glyph unicode="&#xe92d;" glyph-name="agenda" d="M561.579 447.047h-48.91c-95.657-0.103-173.176-77.622-173.288-173.279v-108.515c0-12.137 9.845-21.974 21.974-21.974h351.528c12.137 0 21.974 9.837 21.974 21.974v108.515c-0.112 95.657-77.622 173.176-173.279 173.279zM690.91 187.227h-307.571v86.541c0.077 71.391 57.931 129.253 129.33 129.33h48.91c71.399-0.077 129.253-57.94 129.33-129.33zM543.425 492.086c68.687 0 124.378 55.682 124.378 124.369 0 68.695-55.691 124.378-124.378 124.378s-124.378-55.682-124.378-124.378c0.086-68.652 55.717-124.292 124.378-124.369zM543.425 696.884c44.421 0 80.429-36.009 80.429-80.429 0-44.412-36.009-80.421-80.429-80.421s-80.429 36.009-80.429 80.421c0.052 44.403 36.034 80.378 80.429 80.429zM840.858 960h-607.468c-60.652-0.069-109.803-49.219-109.871-109.871v-42.961h-26.833c-12.137 0-21.974-9.837-21.974-21.974s9.837-21.974 21.974-21.974h26.833v-645.708h-26.833c-12.137 0-21.974-9.845-21.974-21.974 0-12.137 9.837-21.974 21.974-21.974h26.833v-27.691c0.069-60.652 49.219-109.803 109.871-109.871h607.468c60.652 0.069 109.803 49.219 109.871 109.871v804.258c-0.069 60.652-49.219 109.803-109.871 109.871zM906.781 45.871c-0.043-36.395-29.536-65.88-65.923-65.923h-607.468c-36.395 0.043-65.888 29.528-65.923 65.923v27.691h36.206c12.137 0 21.974 9.837 21.974 21.974 0 12.129-9.837 21.974-21.974 21.974h-36.206v645.708h36.206c12.137 0 21.974 9.837 21.974 21.974s-9.837 21.974-21.974 21.974h-36.206v42.961c0.034 36.395 29.528 65.88 65.923 65.923h607.468c36.395-0.043 65.88-29.528 65.923-65.923z" />
<glyph unicode="&#xe92e;" glyph-name="crop" d="M1001.416 188.526h-177.589v537.001l71.607 71.607c9.747 9.757 9.747 25.573-0.010 35.33s-25.573 9.757-35.33 0l-75.042-75.042h-530.123v177.599c0 13.797-11.182 24.978-24.978 24.978s-24.978-11.182-24.978-24.978v-177.599h-177.599c-13.797 0-24.978-11.182-24.978-24.978 0-13.787 11.182-24.978 24.978-24.978h177.589v-532.103c-3.132-8.274-2.039-17.563 2.927-24.89 4.976-7.318 13.201-11.757 22.051-11.904h543.919v-177.589c0-13.797 11.182-24.978 24.978-24.978s24.978 11.182 24.978 24.978v177.589h177.599c13.787 0 24.978 11.191 24.978 24.978 0 13.797-11.191 24.978-24.978 24.978zM735.106 707.467l-480.176-480.176v480.176zM286.816 188.526l487.045 487.045v-487.045z" />
<glyph unicode="&#xe92f;" glyph-name="crown" d="M927.721 598.013c-35.486 0.035-68.11-19.43-84.948-50.671-16.83-31.233-15.151-69.197 4.392-98.812l-142.038-112.823-134.836 439.873c32.963 24.901 46.418 68.014 33.468 107.239-12.942 39.225-49.419 65.866-90.723 66.257-41.304 0.383-78.277-25.553-91.958-64.526-13.69-38.973-1.052-82.339 31.433-107.857l-144.291-440.543-132.262 110.753c25.11 36.564 22.031 85.548-7.445 118.685-29.484 33.146-77.764 41.904-117.015 21.239-39.243-20.674-59.325-65.448-48.671-108.509 10.654-43.052 49.306-73.293 93.663-73.276h0.2l103.7-285.937v-154.066c0-12.289 9.967-22.265 22.265-22.265h601.167c12.289 0 22.265 9.976 22.265 22.265v154.832l82.339 285.198c53.072 0.496 95.768 43.757 95.576 96.829-0.2 53.063-43.209 96.011-96.281 96.115zM512.105 904.433c28.684 0 51.95-23.257 51.95-51.95s-23.266-51.959-51.95-51.959c-28.693 0-51.959 23.266-51.959 51.959 0.035 28.675 23.274 51.915 51.959 51.95zM44.531 501.533c-0.009 28.693 23.257 51.959 51.95 51.959s51.95-23.257 51.959-51.95c0-28.702-23.266-51.959-51.959-51.959-28.684 0.026-51.924 23.274-51.95 51.95zM142.551 416.785l162.286-135.897c5.671-4.749 13.316-6.375 20.422-4.34 7.097 2.035 12.733 7.454 15.038 14.473l152.91 466.835c11.881-2.383 24.109-2.487 36.033-0.313l142.873-466.104c2.157-7.036 7.662-12.559 14.69-14.742s14.69-0.748 20.448 3.836l172.74 137.202c1.635-0.931 3.296-1.826 4.975-2.67l-77.894-269.777h-568.813l-98.029 270.308c0.774 0.391 1.557 0.774 2.322 1.192zM244.92-12.695v113.449h556.636v-113.449zM927.721 449.583c-28.693 0-51.95 23.257-51.95 51.95s23.257 51.95 51.95 51.95c28.693 0 51.959-23.257 51.959-51.95-0.035-28.675-23.274-51.915-51.959-51.95z" />
<glyph unicode="&#xe930;" glyph-name="pendrive" d="M455.457 854.271c-11.808 0-21.378-9.57-21.378-21.378v-100.476c0-11.808 9.57-21.378 21.378-21.378s21.378 9.57 21.378 21.378v100.476c0 11.808-9.57 21.378-21.378 21.378zM581.929 854.271c-11.808 0-21.378-9.57-21.378-21.378v-100.476c0-11.808 9.57-21.378 21.378-21.378s21.378 9.57 21.378 21.378v100.476c0 11.808-9.57 21.378-21.378 21.378zM754.388 660.084h-36.109v278.539c0 11.808-9.57 21.378-21.378 21.378h-367.916c-11.808 0-21.378-9.57-21.378-21.378v-278.539h-36.109c-11.808 0-21.378-9.57-21.378-21.378v-437.587c0-146.188 117.904-265.119 262.823-265.119s262.823 118.931 262.823 265.119v437.587c0 11.808-9.57 21.378-21.378 21.378zM350.363 917.244h325.161v-257.161h-325.161zM733.010 201.119c0-122.614-98.722-222.363-220.067-222.363s-220.067 99.749-220.067 222.363v416.209h440.134zM512.944 88.075c56.468 0 102.246 45.77 102.246 102.238s-45.779 102.246-102.246 102.246c-56.468 0-102.246-45.77-102.246-102.238 0.067-56.443 45.804-102.188 102.246-102.246zM512.944 249.804c32.852 0 59.491-26.63 59.491-59.491 0-32.852-26.639-59.482-59.491-59.482s-59.491 26.63-59.491 59.491c0.042 32.835 26.656 59.44 59.491 59.482z" />
<glyph unicode="&#xe931;" glyph-name="calendar-3" d="M900.923 842.962h-75.125v55.5c0 13.596-11.029 24.615-24.615 24.615-13.596 0-24.615-11.019-24.615-24.615v-55.5h-529.135v55.5c0 13.596-11.019 24.615-24.615 24.615-13.587 0-24.615-11.019-24.615-24.615v-55.5h-75.125c-67.942-0.077-123-55.135-123.077-123.077v-622.606c0.077-67.942 55.135-123 123.077-123.077h777.846c67.942 0.077 123 55.135 123.077 123.077v622.606c-0.077 67.942-55.135 123-123.077 123.077zM974.769 97.279c-0.048-40.76-33.077-73.798-73.846-73.846h-777.846c-40.769 0.048-73.798 33.087-73.846 73.846v622.606c0.048 40.76 33.077 73.798 73.846 73.846h75.125v-66.769c0-13.596 11.029-24.615 24.615-24.615 13.596 0 24.615 11.019 24.615 24.615v66.769h529.135v-66.769c0-13.596 11.019-24.615 24.615-24.615s24.615 11.019 24.615 24.615v66.769h75.125c40.769-0.048 73.798-33.087 73.846-73.846zM438.558 615.962h-40.058c-13.596 0-24.615-11.029-24.615-24.615 0-13.596 11.019-24.615 24.615-24.615h40.058c13.596 0 24.615 11.019 24.615 24.615 0 13.587-11.019 24.615-24.615 24.615zM625.5 615.962h-53.413c-13.596 0-24.615-11.029-24.615-24.615 0-13.596 11.019-24.615 24.615-24.615h53.413c13.596 0 24.615 11.019 24.615 24.615 0 13.587-11.019 24.615-24.615 24.615zM812.442 615.962h-53.413c-13.596 0-24.615-11.029-24.615-24.615 0-13.596 11.019-24.615 24.615-24.615h53.413c13.596 0 24.615 11.019 24.615 24.615 0 13.587-11.019 24.615-24.615 24.615zM438.558 406.49h-40.058c-13.596 0-24.615-11.019-24.615-24.615s11.019-24.615 24.615-24.615h40.058c13.596 0 24.615 11.019 24.615 24.615s-11.019 24.615-24.615 24.615zM251.615 406.49h-40.058c-13.596 0-24.615-11.019-24.615-24.615s11.019-24.615 24.615-24.615h40.058c13.596 0 24.615 11.019 24.615 24.615s-11.019 24.615-24.615 24.615zM625.5 406.49h-53.413c-13.596 0-24.615-11.019-24.615-24.615s11.019-24.615 24.615-24.615h53.413c13.596 0 24.615 11.019 24.615 24.615s-11.019 24.615-24.615 24.615zM812.442 406.49h-53.413c-13.596 0-24.615-11.019-24.615-24.615s11.019-24.615 24.615-24.615h53.413c13.596 0 24.615 11.019 24.615 24.615s-11.019 24.615-24.615 24.615zM438.558 210.375h-40.058c-13.596 0-24.615-11.019-24.615-24.615s11.019-24.615 24.615-24.615h40.058c13.596 0 24.615 11.019 24.615 24.615s-11.019 24.615-24.615 24.615zM251.615 210.375h-40.058c-13.596 0-24.615-11.019-24.615-24.615s11.019-24.615 24.615-24.615h40.058c13.596 0 24.615 11.019 24.615 24.615s-11.019 24.615-24.615 24.615zM625.5 210.375h-53.413c-13.596 0-24.615-11.019-24.615-24.615s11.019-24.615 24.615-24.615h53.413c13.596 0 24.615 11.019 24.615 24.615s-11.019 24.615-24.615 24.615z" />
<glyph unicode="&#xe932;" glyph-name="calendar-4" d="M904.071 848.206h-83.486v61.663c0 13.249-10.738 23.987-23.987 23.987s-23.987-10.738-23.987-23.987v-61.663h-510.508v61.663c0 13.249-10.747 23.987-23.987 23.987-13.249 0-23.987-10.738-23.987-23.987v-61.663h-94.195c-66.208-0.075-119.859-53.736-119.934-119.934v-648.349c0.075-66.208 53.727-119.859 119.934-119.934h784.127c66.208 0.075 119.859 53.727 119.934 119.934v648.349c-0.075 66.198-53.718 119.85-119.925 119.934zM976.032 79.923c-0.047-39.728-32.242-71.914-71.961-71.961h-784.137c-39.728 0.047-71.914 32.232-71.961 71.961v452.649h928.049v-452.649zM47.974 580.546v147.725c0.047 39.719 32.232 71.914 71.961 71.961h94.195v-61.663c0-13.249 10.738-23.987 23.987-23.987s23.987 10.738 23.987 23.987v61.663h510.508v-61.663c0-13.249 10.738-23.987 23.987-23.987s23.987 10.738 23.987 23.987v61.663h83.486c39.728-0.047 71.914-32.242 71.961-71.961v-147.725z" />
<glyph unicode="&#xe933;" glyph-name="ruler" d="M316.403 890.092c-7.44 15.597-23.177 25.523-40.455 25.523s-33.015-9.926-40.446-25.523l-80.954-169.768c-1.435-3.011-2.179-6.302-2.179-9.637v-651.116c0.578-67.834 55.737-122.521 123.571-122.521 67.842 0 123.002 54.687 123.58 122.521v651.116c0 3.335-0.753 6.626-2.188 9.637zM354.713 687.492v-555.694h-157.514v555.694zM275.956 870.792l66.031-138.477h-132.070zM275.939-19.186c-43.475 0.053-78.705 35.282-78.757 78.757v27.405h157.523v-27.405c-0.053-43.475-35.282-78.705-78.766-78.757zM781.812 960h-192.937c-49.479-0.053-89.575-40.149-89.628-89.628v-844.744c0.053-49.479 40.149-89.575 89.628-89.628h192.937c49.47 0.053 89.567 40.149 89.628 89.628v844.744c-0.061 49.479-40.158 89.575-89.628 89.628zM826.626 25.628c-0.035-24.735-20.079-44.788-44.814-44.814h-192.937c-24.744 0.026-44.788 20.079-44.814 44.814v64.508h114.678c12.376 0 22.407 10.031 22.407 22.407s-10.031 22.407-22.407 22.407h-114.678v81.392h71.317c12.376 0 22.407 10.039 22.407 22.407 0 12.376-10.031 22.407-22.407 22.407h-71.317v91.676h114.678c12.376 0 22.407 10.039 22.407 22.407 0 12.376-10.031 22.407-22.407 22.407h-114.678v81.4h71.317c12.376 0 22.407 10.031 22.407 22.407s-10.031 22.407-22.407 22.407h-71.317v91.676h114.678c12.376 0 22.407 10.031 22.407 22.407s-10.031 22.407-22.407 22.407h-114.678v81.409h73.558c12.376 0 22.407 10.031 22.407 22.407 0 12.368-10.031 22.407-22.407 22.407h-73.558v83.799c0.026 24.735 20.070 44.788 44.814 44.814h192.937c24.735-0.026 44.779-20.079 44.814-44.814z" />
<glyph unicode="&#xe934;" glyph-name="diagram" d="M1000.406 936.406h-218.544c-13.032 0-23.594-10.562-23.594-23.594v-65.263h-170.949c-65.124-0.074-117.899-52.848-117.972-117.972v-256.986h-228.682v109.917c0 13.032-10.562 23.594-23.594 23.594h-193.475c-13.032 0-23.594-10.562-23.594-23.594v-273.548c0-13.032 10.562-23.594 23.594-23.594h193.475c13.032 0 23.594 10.562 23.594 23.594v116.442h228.682v-263.521c0.074-65.124 52.848-117.899 117.972-117.972h170.949v-65.253c0-13.032 10.562-23.594 23.594-23.594h218.544c13.032 0 23.594 10.562 23.594 23.594v177.696c0 13.032-10.562 23.594-23.594 23.594h-218.544c-13.032 0-23.594-10.562-23.594-23.594v-65.253h-170.949c-39.078 0.046-70.737 31.705-70.783 70.783v263.521h241.733v-65.253c0-13.032 10.562-23.594 23.594-23.594h218.544c13.032 0 23.594 10.562 23.594 23.594v177.696c0 13.032-10.562 23.594-23.594 23.594h-218.544c-13.032 0-23.594-10.562-23.594-23.594v-65.253h-241.733v256.986c0.046 39.069 31.705 70.737 70.783 70.783h170.949v-65.253c0-13.032 10.562-23.594 23.594-23.594h218.544c13.032 0 23.594 10.562 23.594 23.594v177.705c0 13.032-10.562 23.594-23.594 23.594zM193.475 332.553h-146.286v226.359h146.286zM805.456 132.756h171.355v-130.507h-171.355zM805.456 514.249h171.355v-130.507h-171.355zM976.811 758.71h-171.355v130.507h171.355z" />
<glyph unicode="&#xe935;" glyph-name="diamond" d="M859.634 933.279c-4.666 7.636-12.975 12.293-21.916 12.293h-651.434c-8.951 0-17.25-4.656-21.916-12.293l-160.596-262.699c-5.369-8.78-4.977-19.919 0.993-28.308l487.727-684.719c4.817-6.763 12.614-10.787 20.922-10.787h0.030c8.319 0.010 16.126 4.054 20.932 10.848l3.201 4.516 0.14-0.040 0.171 0.492 481.385 679.752c5.931 8.379 6.312 19.487 0.953 28.248zM569.751 894.194h232.053l-63.741-186.606zM690.98 683.083h-355.801l176.922 198.316zM287.143 706.404l-64.664 187.78h232.203zM240.843 683.083h-169.215l108.234 177.042zM712.154 631.706l-198.828-582.124-200.453 582.104zM844.351 859.795l108.024-176.711h-168.393zM75.381 631.706h183.144l171.393-497.752zM766.431 631.706h182.361l-352.249-497.411z" />
<glyph unicode="&#xe936;" glyph-name="book-1" d="M839.694 960h-622.365c-67.083-0.079-121.441-54.437-121.519-121.511v-756.487c-1.266-7.249-1.904-14.594-1.904-21.948 0-66.402 52.917-120.891 120.471-124.026 0.349-0.017 0.699-0.026 1.039-0.026h573.431c49.371 0.052 89.38 40.061 89.432 89.432v122.716c31.048 14.882 50.821 46.244 50.847 80.681v641.737c-0.052 49.371-40.061 89.38-89.432 89.432zM140.525 838.489c0.052 42.393 34.41 76.742 76.803 76.795h36.332v-731.169h-37.476c-27.502-0.507-54.078-10.009-75.659-27.057zM833.563 25.434c-0.026-24.681-20.026-44.69-44.716-44.716h-572.872c-43.415 2.262-77.354 37.022-77.354 79.336 0 43.415 34.393 78.218 78.34 79.345h616.601zM884.41 228.831c-0.026-24.69-20.026-44.69-44.716-44.716h-541.318v731.169h541.318c24.69-0.026 44.69-20.035 44.716-44.716zM785.711 821.948h-397.44c-12.349 0-22.358-10.009-22.358-22.358v-290.654c0-12.349 10.009-22.358 22.358-22.358h397.44c12.349 0 22.358 10.009 22.358 22.358v290.654c0 12.349-10.009 22.358-22.358 22.358zM763.353 531.294h-352.724v245.938h352.724z" />
<glyph unicode="&#xe937;" glyph-name="chat-2" d="M833.101 177.11c52.819 5.348 92.167 51.154 89.489 104.176-2.678 53.013-46.441 94.626-99.524 94.626s-96.846-41.612-99.524-94.626c-2.678-53.022 36.678-98.828 89.489-104.176-62.969-5.278-111.419-57.894-111.507-121.084v-97.471c0-12.458 10.106-22.555 22.555-22.555h197.974c12.458 0 22.555 10.097 22.555 22.555v97.463c-0.079 63.198-48.529 115.815-111.507 121.093zM768.529 276.256c0 30.123 24.414 54.546 54.537 54.546s54.546-24.414 54.546-54.537-24.423-54.546-54.546-54.546c-30.097 0.035-54.493 24.432-54.537 54.529zM899.498-18.89h-152.855v74.907c0 42.203 34.22 76.423 76.423 76.423 42.211 0 76.432-34.22 76.432-76.423zM215.031 177.11c52.811 5.348 92.159 51.154 89.489 104.176-2.678 53.013-46.449 94.626-99.524 94.626-53.084 0-96.855-41.612-99.524-94.626-2.678-53.022 36.67-98.828 89.48-104.176-62.969-5.286-111.419-57.903-111.498-121.093v-97.463c0-12.458 10.097-22.555 22.555-22.555h197.965c12.458 0 22.555 10.097 22.555 22.555v97.463c-0.070 63.198-48.52 115.815-111.498 121.093zM150.449 276.256c0 30.123 24.423 54.546 54.546 54.546s54.537-24.423 54.537-54.537c0-30.123-24.423-54.546-54.537-54.546-30.106 0.035-54.502 24.432-54.546 54.529zM281.419-18.89h-152.855v74.907c0 42.203 34.22 76.423 76.432 76.423s76.432-34.22 76.432-76.423v-74.907zM524.070 177.11c52.811 5.348 92.159 51.154 89.48 104.176-2.67 53.013-46.441 94.626-99.524 94.626-53.075 0-96.846-41.612-99.524-94.626-2.67-53.022 36.678-98.828 89.489-104.176-62.969-5.278-111.419-57.894-111.498-121.084v-97.471c0-12.458 10.097-22.555 22.555-22.555h197.965c12.458 0 22.555 10.097 22.555 22.555v97.463c-0.070 63.198-48.52 115.815-111.498 121.093zM459.489 276.256c0 30.123 24.423 54.537 54.546 54.537s54.537-24.423 54.537-54.546c0-30.115-24.423-54.537-54.546-54.537-30.106 0.035-54.502 24.432-54.537 54.537zM590.458-18.89h-152.855v74.907c0 42.203 34.22 76.423 76.432 76.423s76.423-34.22 76.423-76.423zM833.445 521.145c49.806 0.053 90.167 40.414 90.22 90.22v258.414c-0.053 49.806-40.414 90.167-90.22 90.22h-552.132c-49.806-0.053-90.167-40.414-90.22-90.22v-258.414c0.053-49.806 40.414-90.167 90.22-90.22h280.643l85.956-121.26c4.229-5.965 11.093-9.507 18.396-9.507 7.313 0 14.176 3.542 18.405 9.507l85.956 121.26zM740.608 556.74l-74.291-104.811-74.3 104.811c-4.229 5.965-11.084 9.515-18.396 9.515h-292.317c-24.899 0.026-45.084 20.203-45.11 45.11v258.414c0.026 24.899 20.211 45.084 45.11 45.11h552.15c24.899-0.026 45.084-20.211 45.11-45.11v-258.414c-0.026-24.907-20.211-45.084-45.11-45.11h-74.432c-7.313 0-14.176-3.542-18.414-9.515z" />
<glyph unicode="&#xe938;" glyph-name="chat-3" d="M893.506 960h-324.349c-51.328-0.054-92.923-41.649-92.977-92.977v-336.688c0-8.372 4.504-16.098 11.795-20.23 7.282-4.122 16.226-4.013 23.408 0.291l121.179 72.693h260.945c51.328 0.054 92.923 41.649 92.977 92.977v190.957c-0.054 51.328-41.649 92.923-92.977 92.977zM939.995 676.065c-0.027-25.669-20.829-46.461-46.489-46.489h-267.382c-4.213 0-8.344-1.144-11.958-3.314l-91.497-54.878v295.639c0.027 25.66 20.829 46.461 46.489 46.489h324.349c25.66-0.027 46.461-20.829 46.489-46.489zM298.479 269.862c-142.262-0.173-257.549-115.459-257.712-257.721v-52.899c0-12.839 10.405-23.244 23.244-23.244h468.945c12.83 0 23.244 10.405 23.244 23.244v52.899c-0.163 142.262-115.459 257.558-257.721 257.721zM509.712-17.514h-422.456v29.655c-0.254 75.635 39.951 145.622 105.407 183.512s146.176 37.89 211.632 0c65.456-37.89 105.662-107.877 105.417-183.512zM298.479 298.89c83.698 0 151.551 67.853 151.551 151.551s-67.853 151.551-151.551 151.551-151.551-67.853-151.551-151.551c0.091-83.661 67.89-151.46 151.551-151.551zM298.479 555.504c58.029 0 105.062-47.033 105.062-105.062s-47.033-105.062-105.062-105.062-105.062 47.033-105.062 105.062c0.064 57.993 47.070 104.99 105.062 105.053z" />
<glyph unicode="&#xe939;" glyph-name="route" d="M309.208 545.913c40.581 40.303 47.013 103.668 15.364 151.31s-92.558 66.263-145.441 44.466c-52.875-21.788-82.974-77.92-71.871-134.028s60.32-96.533 117.513-96.541c31.666-0.147 62.067 12.384 84.435 34.793zM147.367 630.348c0 42.76 34.662 77.422 77.414 77.422 42.76 0 77.422-34.662 77.422-77.422s-34.662-77.422-77.422-77.422c-20.596-0.22-40.417 7.861-54.989 22.433-14.564 14.564-22.654 34.385-22.425 54.989zM799.221 527.961c-56.638-0.196-105.268-40.352-116.174-95.929-10.906-55.585 18.947-111.138 71.308-132.722 52.369-21.584 112.697-3.2 144.118 43.92 31.429 47.128 25.225 109.88-14.833 149.93-22.36 22.409-52.761 34.94-84.419 34.801zM799.221 331.328c-42.76 0-77.422 34.662-77.422 77.414 0 42.76 34.662 77.422 77.422 77.422s77.422-34.662 77.422-77.422c0.22-20.596-7.861-40.417-22.433-54.989-14.564-14.564-34.385-22.654-54.989-22.425zM955.682 558.403c-41.413 41.658-97.717 65.079-156.453 65.079s-115.048-23.421-156.453-65.079c-39.821-40.026-63.896-93.047-67.814-149.375-3.763-52.793 12.955-107.44 47.193-154.004l68.663-91.725c-35.168 10.784-57.471 3.51-75.39-2.335-16.082-5.249-27.699-9.053-50.336-2.065-22.988 7.094-31.789 17.756-42.932 31.25-12.433 15.045-27.911 33.797-62.851 44.573-35.315 10.89-57.659 3.592-75.618-2.269-16.090-5.249-27.699-9.045-50.328-2.065-22.988 7.094-31.789 17.747-42.932 31.242-7.314 8.874-15.739 19.013-28.531 28.050l140.061 187.091c34.131 46.426 50.85 101.072 47.087 153.833-3.918 56.336-27.993 109.374-67.814 149.4-41.405 41.658-97.717 65.087-156.453 65.087s-115.048-23.429-156.453-65.087c-39.813-40.026-63.887-93.047-67.806-149.367-3.772-52.801 12.955-107.448 47.193-154.012l143.114-191.18c3.763-5.045 8.604-9.192 14.18-12.131 2.612-3.339 6.196-5.804 10.253-7.053 22.988-7.094 31.789-17.747 42.94-31.242 12.433-15.053 27.903-33.797 62.842-44.573 35.307-10.89 57.659-3.592 75.618 2.269 16.082 5.249 27.699 9.045 50.328 2.065 22.988-7.094 31.789-17.756 42.932-31.25 12.433-15.045 27.911-33.797 62.851-44.573 35.315-10.89 57.659-3.592 75.618 2.269 16.082 5.249 27.707 9.045 50.336 2.065 22.988-7.094 31.797-17.764 42.948-31.25 12.433-15.053 27.911-33.797 62.851-44.581 3.478-1.078 7.168-1.225 10.719-0.416 1.314-0.122 2.637-0.196 3.967-0.196 13.38-0.057 25.984 6.253 33.952 16.996l143.228 191.319c34.131 46.426 50.858 101.072 47.087 153.833-3.91 56.336-27.976 109.374-67.798 149.408zM81.284 501.528c-28.254 38.434-42.132 83.227-39.062 126.167 3.208 46.303 22.988 89.904 55.724 122.82 33.568 33.78 79.218 52.777 126.836 52.777s93.276-18.996 126.836-52.777c32.744-32.923 52.532-76.533 55.74-122.852 3.061-42.907-10.817-87.7-38.964-125.987l-143.114-191.18c-0.106-0.171-0.302-0.269-0.498-0.245-0.196-0.016-0.392 0.073-0.49 0.245zM942.833 280.069l-143.114-191.172c-0.122-0.155-0.302-0.245-0.498-0.245-0.188 0-0.367 0.090-0.49 0.245l-143.008 191.034c-28.262 38.425-42.132 83.218-39.070 126.158 3.216 46.311 22.997 89.913 55.732 122.82 33.568 33.78 79.218 52.777 126.836 52.777s93.276-18.996 126.836-52.777c32.744-32.915 52.532-76.533 55.74-122.852 3.061-42.907-10.817-87.692-38.964-125.987z" />
<glyph unicode="&#xe93a;" glyph-name="file" d="M914.549 918.922h-616.133c-60.424-0.068-109.389-49.033-109.457-109.457v-343.909h-79.502c-60.424-0.068-109.389-49.033-109.457-109.457v-262.133c0.068-64.238 52.129-116.298 116.367-116.375h767.645c77.278 0.086 139.9 62.716 139.985 139.994v691.88c-0.060 60.424-49.025 109.389-109.449 109.457zM188.959 93.966c0-40.089-32.495-72.592-72.584-72.592s-72.592 32.504-72.592 72.592v262.116c0.043 36.258 29.425 65.64 65.674 65.674h79.502zM980.223 117.585c-0.068-53.112-43.107-96.143-96.211-96.211h-676.736c16.513 20.592 25.5 46.203 25.474 72.592v715.499c0.034 36.258 29.417 65.64 65.674 65.674h616.124c36.249-0.034 65.632-29.417 65.674-65.674zM835.91 296.171h-460.601c-12.083 0-21.891-9.8-21.891-21.891s9.808-21.891 21.891-21.891h460.601c12.092 0 21.891 9.8 21.891 21.891s-9.8 21.891-21.891 21.891zM835.91 471.302h-460.601c-12.083 0-21.891-9.8-21.891-21.891s9.808-21.891 21.891-21.891h460.601c12.092 0 21.891 9.8 21.891 21.891s-9.8 21.891-21.891 21.891zM375.318 624.542h241.686c12.092 0 21.891 9.8 21.891 21.891s-9.8 21.891-21.891 21.891h-241.686c-12.083 0-21.891-9.8-21.891-21.891s9.808-21.891 21.891-21.891z" />
<glyph unicode="&#xe93b;" glyph-name="inbox" d="M1017.784 428.867l-99.67 218.512c-21.898 47.812-69.623 78.5-122.208 78.578h-63.471c-13.709 0-24.837-11.119-24.837-24.837s11.128-24.837 24.837-24.837h63.481c33.133-0.058 63.2-19.395 76.996-49.52l86.427-189.502h-221.102c-9.683 0-18.492-5.637-22.548-14.437l-42.825-92.772c-13.874-29.941-43.844-49.112-76.841-49.18h-172.659c-32.997 0.068-62.957 19.249-76.841 49.18l-42.816 92.772c-4.065 8.8-12.865 14.437-22.557 14.437h-213.34l104.706 194.489c14.738 27.438 43.369 44.543 74.512 44.523h44.523c13.719 0 24.837 11.119 24.837 24.837s-11.119 24.837-24.837 24.837h-44.513c-49.432 0.039-94.877-27.108-118.259-70.651l-121.073-224.886c-4.929-4.686-7.713-11.187-7.704-17.978 0-0.437 0-0.873 0.039-1.3-0.029-0.427-0.039-0.863-0.039-1.29v-230.154c0.116-104.356 84.69-188.93 189.046-189.046h645.901c104.366 0.116 188.94 84.69 189.056 189.056v230.145c0 0.427 0 0.854-0.039 1.29 0.019 0.427 0.039 0.863 0.039 1.3 0.010 6.054-2.202 11.895-6.219 16.435zM974.318 179.697c-0.078-76.938-62.433-139.294-139.371-139.381h-645.901c-76.938 0.087-139.284 62.433-139.371 139.381v207.888h215.591l36.16-78.345c22.034-47.502 69.593-77.928 121.956-78.025h172.65c52.362 0.097 99.922 30.523 121.956 78.025l36.16 78.345h220.2v-207.888zM360.328 600.605l136.053-110.051c9.169-7.422 22.286-7.374 31.386 0.116l133.919 110.051c10.595 8.713 12.128 24.362 3.415 34.967-8.713 10.595-24.362 12.128-34.967 3.415l-93.296-76.686v317.406c0 13.719-11.119 24.837-24.837 24.837s-24.837-11.119-24.837-24.837v-317.92l-95.595 77.326c-10.672 8.499-26.196 6.801-34.782-3.803-8.577-10.614-6.995-26.157 3.541-34.811z" />
<glyph unicode="&#xe93c;" glyph-name="download" d="M297.395 404.624l196.576-184.82c9.62-9.044 24.605-9.044 34.224 0l196.576 184.82c10.049 9.444 10.537 25.249 1.093 35.298-9.454 10.049-25.259 10.537-35.307 1.093l-154.498-145.249v639.259c0 13.795-11.18 24.976-24.976 24.976s-24.976-11.18-24.976-24.976v-639.259l-154.498 145.239c-10.049 9.454-25.854 8.966-35.307-1.083-9.444-10.059-8.956-25.863 1.093-35.307zM872.312 774.429h-126.644c-13.795 0-24.976-11.18-24.976-24.976s11.18-24.976 24.976-24.976h126.644c41.366-0.049 74.878-33.561 74.927-74.927v-588.673c-0.049-41.366-33.561-74.878-74.927-74.927h-722.459c-41.366 0.049-74.878 33.561-74.927 74.927v588.673c0.049 41.366 33.561 74.878 74.927 74.927h126.654c13.785 0 24.976 11.18 24.976 24.976s-11.19 24.976-24.976 24.976h-126.654c-68.937-0.078-124.8-55.941-124.878-124.878v-588.673c0.078-68.937 55.941-124.8 124.878-124.878h722.459c68.937 0.078 124.8 55.941 124.878 124.878v588.673c-0.078 68.937-55.941 124.8-124.878 124.878z" />
<glyph unicode="&#xe93d;" glyph-name="cocktail" d="M793.347 954.881c-60.177 12.86-122.995 1.273-174.637-32.189-45.7-29.433-79.42-74.195-95.084-126.258h-450.061c-13.53 0-24.496-10.966-24.496-24.496v-266.755c0-90.462 35.72-182.139 97.983-251.531 59.326-66.11 135.243-105.217 215.936-111.819v-156.84h-119.847c-13.52 0-24.496-10.966-24.496-24.496s10.975-24.496 24.496-24.496h301.795c13.53 0 24.496 10.966 24.496 24.496s-10.966 24.496-24.496 24.496h-132.947v156.849c80.606 6.641 156.524 45.929 215.964 112.326 60.426 67.507 95.83 155.672 97.868 243.053 6.631-0.565 13.253-0.852 19.865-0.861 118.651 0.086 218.079 89.773 230.346 207.793s-66.579 226.241-182.685 250.727zM676.925 747.452v-221.725h-578.865v221.725zM591.439 286.846c-54.57-60.952-124.718-95.218-198.128-96.94-3.818 0.966-7.827 0.966-11.645 0-73.545 1.713-143.702 35.806-198.147 96.471-47.518 52.934-76.97 119.598-84.108 190.359h576.138c-6.526-68.655-36.37-136.554-84.099-189.89zM923.94 690.011c-9.741-47.47-38.198-89.017-78.932-115.254-35.26-22.859-77.315-32.859-119.091-28.323v225.514c0 13.52-10.966 24.496-24.496 24.496h-125.933c13.798 34.973 38.227 64.751 69.842 85.113 40.81 26.429 90.443 35.548 137.98 25.366 47.47-9.741 89.017-38.198 115.254-78.932 26.429-40.81 35.557-90.443 25.376-137.98z" />
<glyph unicode="&#xe93e;" glyph-name="dumbbell" d="M932.1 618.41h-23.431v11.9c-0.059 50.728-41.172 91.841-91.9 91.9h-114.477c-11.833 0-21.423-9.59-21.423-21.423v-127.649h-337.741v127.649c0 11.833-9.59 21.423-21.423 21.423h-114.477c-50.728-0.059-91.841-41.172-91.9-91.908v-11.891h-23.431c-50.728-0.059-91.841-41.172-91.9-91.908v-147.356c0.059-50.728 41.172-91.841 91.9-91.9h23.431v-23.431c0.059-50.728 41.172-91.841 91.9-91.9h114.477c11.833 0 21.423 9.59 21.423 21.423v127.649h337.741v-127.657c0-11.824 9.59-21.423 21.423-21.423h114.477c50.728 0.059 91.841 41.172 91.9 91.908v23.431h23.431c50.728 0.059 91.841 41.172 91.9 91.9v147.372c-0.059 50.728-41.172 91.833-91.9 91.891zM91.9 330.092c-27.080 0.033-49.021 21.975-49.054 49.054v147.372c0.025 27.079 21.975 49.029 49.054 49.054h23.431v-245.481zM300.285 214.762h-93.054c-27.079 0.033-49.029 21.975-49.054 49.063v366.485c0.025 27.080 21.975 49.021 49.054 49.054h93.054zM343.13 363.841v166.452h337.741v-166.452zM865.824 263.816c-0.025-27.080-21.975-49.021-49.054-49.054h-93.054v464.603h93.054c27.079-0.033 49.029-21.975 49.054-49.063zM981.155 379.146c-0.025-27.079-21.975-49.029-49.054-49.054h-23.431v245.473h23.431c27.080-0.025 49.029-21.975 49.054-49.054z" />
<glyph unicode="&#xe93f;" glyph-name="dvd" d="M534.164 758.304c0 12.242-9.922 22.164-22.164 22.164-88.19 0.052-172.787-34.961-235.142-97.324-62.363-62.355-97.376-146.952-97.324-235.142 0-12.242 9.922-22.164 22.164-22.164s22.164 9.922 22.164 22.164c0.182 159.056 129.082 287.956 288.138 288.138 12.242 0 22.164 9.922 22.164 22.164zM822.302 470.166c-12.242 0-22.164-9.922-22.164-22.164-0.182-159.064-129.073-287.956-288.138-288.138-12.242 0-22.164-9.922-22.164-22.164s9.922-22.164 22.164-22.164c88.199-0.052 172.787 34.952 235.151 97.316s97.368 146.961 97.316 235.151c0 12.242-9.922 22.164-22.164 22.164zM512 960c-207.082 0-393.774-124.744-473.020-316.068-79.255-191.315-35.446-411.54 110.987-557.972 199.947-199.947 524.128-199.947 724.076 0s199.947 524.128 0 724.076c-95.809 96.337-226.173 150.337-362.042 149.965zM512-19.668c-257.869 0-467.67 209.792-467.67 467.67 0 257.869 209.8 467.67 467.67 467.67 257.878 0 467.67-209.8 467.67-467.67 0-257.878-209.792-467.67-467.67-467.67zM660.961 448.001c0 82.268-66.692 148.961-148.961 148.961s-148.952-66.692-148.952-148.961 66.684-148.961 148.952-148.961c82.234 0.095 148.865 66.727 148.961 148.961zM407.377 448.001c0 57.783 46.84 104.632 104.623 104.632 57.792 0 104.632-46.848 104.632-104.632s-46.84-104.632-104.632-104.632c-57.757 0.069-104.562 46.874-104.623 104.632z" />
<glyph unicode="&#xe940;" glyph-name="edit" d="M965.917 736.45c-36.119 36.009-91.33 44.651-136.725 21.394v84.725c-0.073 64.826-52.606 117.358-117.431 117.431h-580.239c-64.826-0.073-117.358-52.606-117.431-117.431v-789.138c0.073-64.826 52.606-117.358 117.431-117.431h580.239c64.826 0.073 117.358 52.606 117.431 117.431v359.633l147.028 147.028c45.862 45.862 45.862 120.211 0 166.073zM448.541 295.055l85.55-86.339-116.44-30.89zM579.413 229.716l-109.945 110.954 317.339 316.431 110-109.991zM782.22 53.431c-0.046-38.899-31.56-70.413-70.459-70.459h-580.239c-38.899 0.046-70.413 31.56-70.459 70.459v789.138c0.046 38.899 31.56 70.413 70.459 70.459h580.239c38.899-0.046 70.422-31.56 70.459-70.459v-123.688l-362.495-361.468c-2.954-2.945-5.073-6.624-6.128-10.651l-51.651-196.009c-2.128-8.083 0.202-16.688 6.119-22.606 5.917-5.908 14.523-8.22 22.615-6.073l194.679 51.651c4 1.055 7.651 3.156 10.587 6.092l186.275 186.275zM943 593.303l-12.982-12.982-109.954 109.954 13.092 13.055c27.55 27.376 72.046 27.33 99.55-0.092l10.294-10.294c27.477-27.532 27.468-72.11 0-99.642z" />
<glyph unicode="&#xe941;" glyph-name="edit-1" d="M945.112 316.73c-14.086 0-25.503-11.417-25.503-25.503v-226.438c-0.050-42.239-34.27-76.469-76.509-76.509h-715.586c-42.239 0.040-76.459 34.27-76.509 76.509v664.58c0.050 42.229 34.27 76.459 76.509 76.509h226.438c14.086 0 25.503 11.417 25.503 25.503 0 14.076-11.417 25.503-25.503 25.503h-226.438c-70.392-0.080-127.435-57.123-127.515-127.515v-664.59c0.080-70.392 57.123-127.435 127.515-127.515h715.586c70.392 0.080 127.435 57.123 127.515 127.515v226.448c0 14.086-11.417 25.503-25.503 25.503zM960.513 922.503c-44.819 44.819-117.483 44.819-162.302 0l-454.988-454.988c-3.118-3.118-5.37-6.983-6.545-11.227l-59.832-216.008c-2.461-8.856 0.040-18.34 6.535-24.845 6.505-6.495 15.989-8.996 24.845-6.545l216.008 59.842c4.244 1.176 8.109 3.427 11.227 6.545l454.978 454.998c44.75 44.849 44.75 117.453 0 162.302zM398.792 450.939l372.372 372.382 120.093-120.093-372.382-372.382zM374.803 402.802l95.945-95.955-132.715-36.77zM954.376 766.338l-27.047-27.047-120.103 120.103 27.057 27.047c24.895 24.895 65.262 24.895 90.157 0l29.936-29.926c24.855-24.925 24.855-65.262 0-90.177z" />
<glyph unicode="&#xe942;" glyph-name="edit-2" d="M178.807 79.21c6.635-4.735 15.234-5.736 22.777-2.65l261.345 106.973c3.855 1.575 7.228 4.142 9.776 7.432l382.199 493.5c24.454 31.58 35.259 71.649 29.977 111.254-5.273 39.596-26.187 75.439-58.073 99.514l-43.961 33.211c-65.422 49.066-158.097 36.668-208.321-27.874l-384.108-497.021c-2.919-3.79-4.633-8.377-4.911-13.149l-16.606-290.525c-0.463-8.136 3.28-15.938 9.906-20.664zM230.255 341.944l174.563-130.918-186.406-76.292zM448.668 237.445l-206.802 155.094 311.921 403.614 206.301-156.614zM612.065 871.565c34.286 44.044 97.53 52.514 142.186 19.024l43.961-33.211c21.767-16.43 36.038-40.893 39.642-67.924s-3.771-54.376-20.47-75.939l-28.244-36.464-206.338 156.642zM1000.278-16.643h-976.556c-13.103 0-23.722-10.619-23.722-23.722s10.619-23.722 23.722-23.722h976.556c13.103 0 23.722 10.619 23.722 23.722s-10.619 23.722-23.722 23.722z" />
<glyph unicode="&#xe943;" glyph-name="mortarboard" d="M1013.876 505.987l-489.659 319.965c-7.426 4.852-17.017 4.852-24.434 0l-489.668-319.965c-6.117-3.997-9.887-10.734-10.105-18.029-0.218-7.304 3.15-14.25 9.014-18.605l194.967-144.606v-237.691c0-7.339 3.595-14.198 9.625-18.378 6.039-4.171 13.727-5.114 20.594-2.531 179.085 67.499 376.617 67.499 555.701 0 6.859-2.583 14.556-1.641 20.586 2.539 6.030 4.171 9.625 11.030 9.625 18.369v236.862l194.906 145.47c5.838 4.363 9.189 11.301 8.962 18.596s-4.005 14.015-10.114 18.003zM775.442 118.672c-170.96 57.027-355.804 57.027-526.764 0v203.388c170.419 60.248 356.337 60.256 526.764 0.035zM796.421 361.983c-183.483 66.452-384.436 66.539-567.979 0.253l-167.033 123.89 450.591 294.44 450.678-294.492z" />
<glyph unicode="&#xe944;" glyph-name="calendar-5" d="M798.931 477.862h-572.249c-12.597 0-22.806-10.209-22.806-22.806v-357.746c0-12.597 10.209-22.806 22.806-22.806h572.249c12.588 0 22.806 10.209 22.806 22.806v357.746c0 12.597-10.218 22.806-22.806 22.806zM776.125 298.984h-149.479v133.283h149.479zM431.563 298.984v133.283h149.47v-133.265zM581.033 253.372v-133.256h-149.47v133.256zM385.951 432.267v-133.265h-136.463v133.265zM249.488 253.39h136.463v-133.265h-136.463zM626.646 120.125v133.247h149.479v-133.256zM909.292 872.597h-45.238v64.597c0 12.597-10.209 22.806-22.806 22.806s-22.806-10.209-22.806-22.806v-64.597h-598.272v64.597c0 12.597-10.209 22.806-22.806 22.806-12.588 0-22.806-10.209-22.806-22.806v-64.597h-58.245c-62.949-0.071-113.96-51.082-114.031-114.031v-708.535c0.071-62.949 51.082-113.96 114.031-114.031h792.971c62.949 0.071 113.96 51.082 114.031 114.031v708.535c-0.071 62.949-51.073 113.96-114.022 114.031zM116.321 826.984h79.822c0.41-0.027 0.82-0.062 1.238-0.062 0.41 0 0.82 0.045 1.229 0.062h641.399c0.41-0.027 0.82-0.062 1.229-0.062 0.419 0 0.829 0.045 1.238 0.062h66.824c37.764-0.045 68.374-30.646 68.419-68.419v-133.078h-929.826v133.078c0.045 37.773 30.646 68.374 68.419 68.419zM909.292-18.388h-792.98c-37.773 0.045-68.374 30.646-68.419 68.419v529.844h929.808v-529.844c-0.036-37.764-30.646-68.374-68.41-68.419z" />
</font>
</defs>
</svg>
