<?xml version="1.0" encoding="UTF-8" standalone="no"?>
<!-- Created with Inkscape (http://www.inkscape.org/) -->

<svg
   width="200"
   height="200"
   viewBox="0 0 52.916665 52.916668"
   version="1.1"
   id="svg3966"
   inkscape:version="1.2 (dc2aedaf03, 2022-05-15)"
   sodipodi:docname="favicon.svg"
   xmlns:inkscape="http://www.inkscape.org/namespaces/inkscape"
   xmlns:sodipodi="http://sodipodi.sourceforge.net/DTD/sodipodi-0.dtd"
   xmlns="http://www.w3.org/2000/svg"
   xmlns:svg="http://www.w3.org/2000/svg">
  <sodipodi:namedview
     id="namedview3968"
     pagecolor="#ffffff"
     bordercolor="#666666"
     borderopacity="1.0"
     inkscape:pageshadow="2"
     inkscape:pageopacity="0.0"
     inkscape:pagecheckerboard="0"
     inkscape:document-units="px"
     showgrid="false"
     units="px"
     inkscape:zoom="2.0938813"
     inkscape:cx="161.66151"
     inkscape:cy="92.650908"
     inkscape:window-width="2560"
     inkscape:window-height="1017"
     inkscape:window-x="-8"
     inkscape:window-y="-8"
     inkscape:window-maximized="1"
     inkscape:current-layer="layer1"
     inkscape:showpageshadow="2"
     inkscape:deskcolor="#d1d1d1" />
  <defs
     id="defs3963" />
  <g
     inkscape:label="Layer 1"
     inkscape:groupmode="layer"
     id="layer1">
    <g
       id="g1455"
       transform="matrix(1.5963775,0,0,1.8460195,-240.31796,-29.700707)">
      <circle
         style="fill:#1ea6c6;fill-opacity:1;stroke:#000000;stroke-width:0;stroke-linecap:round;stroke-linejoin:round;paint-order:stroke fill markers;stop-color:#000000"
         id="path495"
         cx="167.11354"
         cy="30.421694"
         r="13.643861" />
      <path
         id="path4158-7"
         style="fill:#b3ff80;stroke-width:0.0726242"
         d="m 161.70132,17.934695 c -0.52041,0.208162 -1.02505,0.447046 -1.51201,0.71446 l -2.27925,1.737496 -1.77276,1.929834 c 0.1645,0.02458 -1.6827,1.882952 -0.85728,2.53465 1.4783,1.167175 5.93856,1.398976 6.12884,1.163901 0.76691,-0.946292 2.44227,-1.833186 3.66671,-2.393844 0.8025,-0.366752 1.06183,-1.378377 0.53458,-2.085009 -1.61734,-2.171462 -3.90883,-3.601488 -3.90883,-3.601488 z m 3.99937,0.21774 c -0.43823,0.002 1.47861,1.407166 1.69308,3.051422 l 1.67045,-2.178821 c 0,0 -0.72643,-0.653538 -3.3409,-0.87141 -0.008,-6.91e-4 -0.0226,-0.0012 -0.0226,-0.0012 z m 9.19655,1.18501 c 0,0 -1.18886,1.823519 -1.14093,3.643479 0.0109,0.435018 0.35148,0.790812 0.78505,0.836565 0.0305,0.0029 0.0618,0.0051 0.0923,0.0051 0.33045,0 0.63544,-0.187325 0.78505,-0.488716 0.31809,-0.63764 1.15534,-1.410249 3.26942,0.128656 l 0.001,-9.22e-4 c -0.97098,-1.620243 -2.2645,-3.024625 -3.79179,-4.124155 z m 4.23763,4.928257 c 0,0 -0.73803,0.16549 -1.72644,0.04348 -0.27452,-0.03413 -0.5517,0.03265 -0.77611,0.193878 -0.15615,0.112568 -0.33559,0.274407 -0.53458,0.474123 -1.00875,1.013833 -1.17578,3.122898 -1.17578,3.122898 -0.0196,0.440102 -1.5e-4,0.926644 0.0703,1.464063 0.15759,1.19394 1.25211,2.036541 2.44388,1.862243 0.0174,-0.0022 0.035,-0.0052 0.0524,-0.0074 0.85987,-0.133629 1.64489,0.515068 1.69427,1.383653 0.0443,0.783614 0.21139,1.671762 0.65222,2.421242 h 5.8e-4 c 0.52434,-1.459017 0.80976,-3.032115 0.80976,-4.671242 0,-2.26442 -0.54462,-4.400846 -1.51052,-6.286894 z m -18.94556,6.672864 -1.3828,-2.293642 0.034,-1.869021 0.40496,-1.007532 -4.14327,-1.745612 -0.3761,1.545273 0.003,1.650512 1.28371,1.362309 2.65397,1.235138 1.52214,1.740841 c 0.12983,0.16897 0.22743,0.363102 0.27905,0.575379 0.001,0.0058 0.003,0.01087 0.004,0.01668 0.0416,-0.412925 -0.0782,-0.816211 -0.28322,-1.210324 z m 0.28322,1.210324 c 0.13871,0.576635 0.24853,1.437874 0.11853,2.555558 -0.13871,1.196845 0.39941,2.372046 1.38782,3.06125 l 1.34792,0.940503 c 0,0 -0.40003,3.059511 0.57632,4.985756 0.11747,0.02272 0.11848,0.03501 0.26184,0.06478 0.12818,0.02093 0.1449,0.0361 0.29054,0.04975 0.22381,-0.222314 0.57994,-0.58182 1.10075,-1.122658 l 2.14844,-2.278291 c 0.62021,-0.681214 1.23892,-1.384876 1.77707,-2.042124 0.95646,-1.168523 0.65439,-2.914367 -0.63614,-3.69798 -1.20483,-0.731326 -2.6249,-1.675448 -3.53924,-2.553475 -0.45971,-0.440828 -1.09226,-0.652284 -1.72555,-0.584017 -0.81339,0.08788 -1.96592,0.265088 -3.1083,0.620947 z"
         sodipodi:nodetypes="ccccsccccsccscscccsccccccccccccccccssccccccccccccccccccccccccccccc" />
    </g>
  </g>
</svg>
