<?xml version="1.0" encoding="UTF-8" standalone="no"?>
<!-- Created with Inkscape (http://www.inkscape.org/) -->

<svg
   width="200"
   height="200"
   viewBox="0 0 52.916665 52.916668"
   version="1.1"
   id="svg3966"
   inkscape:version="1.1.2 (b8e25be833, 2022-02-05)"
   sodipodi:docname="favicon.svg"
   xmlns:inkscape="http://www.inkscape.org/namespaces/inkscape"
   xmlns:sodipodi="http://sodipodi.sourceforge.net/DTD/sodipodi-0.dtd"
   xmlns="http://www.w3.org/2000/svg"
   xmlns:svg="http://www.w3.org/2000/svg">
  <sodipodi:namedview
     id="namedview3968"
     pagecolor="#ffffff"
     bordercolor="#666666"
     borderopacity="1.0"
     inkscape:pageshadow="2"
     inkscape:pageopacity="0.0"
     inkscape:pagecheckerboard="0"
     inkscape:document-units="px"
     showgrid="false"
     units="px"
     inkscape:zoom="0.74029882"
     inkscape:cx="396.46153"
     inkscape:cy="21.612894"
     inkscape:window-width="2560"
     inkscape:window-height="1017"
     inkscape:window-x="-8"
     inkscape:window-y="-8"
     inkscape:window-maximized="1"
     inkscape:current-layer="layer1" />
  <defs
     id="defs3963" />
  <g
     inkscape:label="Layer 1"
     inkscape:groupmode="layer"
     id="layer1">
    <path
       id="path4154"
       style="fill:#1ea6c6;stroke-width:0.126016"
       d="m 22.393183,2.298224 c -3.145358,0 -6.148044,0.6060097 -8.900232,1.7073895 0,0 3.97564,2.4813538 6.782015,6.2492305 0.914874,1.226135 0.464884,2.981487 -0.927592,3.617868 -2.124629,0.972843 -5.031674,2.511247 -6.362403,4.153235 -0.514518,0.63565 -1.319523,0.952586 -2.11615,0.83354 v 8.078578 c 0.355717,0.683882 0.564174,1.384118 0.49196,2.100646 1.982231,-0.617479 3.982091,-0.924975 5.393469,-1.077454 1.098859,-0.118454 2.196452,0.248459 2.994133,1.013375 1.586541,1.523534 4.050106,3.161758 6.140711,4.430739 2.239302,1.35971 2.763438,4.389064 1.103808,6.416662 -0.933777,1.140444 -2.007356,2.361425 -3.083532,3.543453 l -3.727939,3.953246 c -1.769264,1.837317 -2.443261,2.468584 -2.443261,2.468584 -2.227963,-3.231007 -1.425236,-9.370489 -1.425236,-9.370487 l -2.338876,-1.631942 c -1.715077,-1.195893 -2.648812,-3.235076 -2.408122,-5.311822 0.225568,-1.93938 0.03502,-3.433787 -0.205672,-4.434354 -0.0025,-0.01008 -0.0047,-0.01886 -0.0072,-0.02894 -0.09002,-0.370194 -0.257178,-0.710903 -0.484208,-1.005104 v 19.28771 c 2.115917,1.16232 4.425741,2.014961 6.869349,2.495973 1.505889,0.296135 3.062172,0.451133 4.655013,0.451136 10.393795,-3e-6 19.242506,-6.615613 22.565546,-15.865184 h -0.0011 c -0.764918,-1.300483 -1.054843,-2.841581 -1.131713,-4.201293 -0.08569,-1.507151 -1.447845,-2.632757 -2.939872,-2.400887 -0.03024,0.0038 -0.06071,0.0091 -0.09095,0.01291 -2.067922,0.302438 -3.966599,-1.159626 -4.240051,-3.231328 -0.12224,-0.932519 -0.156493,-1.776756 -0.122473,-2.540413 0,0 0.289824,-3.659608 2.040183,-5.41879 0.345291,-0.346544 0.656666,-0.627363 0.927599,-0.822688 0.38939,-0.279754 0.870866,-0.395644 1.347206,-0.336414 1.715076,0.211706 2.995165,-0.07596 2.995165,-0.07596 -0.241949,-0.47508 -0.500142,-0.939828 -0.773597,-1.394747 l -0.0016,0.001 c -3.668308,-2.670277 -5.121074,-1.329144 -5.673024,-0.222724 -0.259594,0.522967 -0.788819,0.84801 -1.362192,0.84801 -0.05293,0 -0.107267,-0.0038 -0.160197,-0.0088 -0.752261,-0.07939 -1.343287,-0.69676 -1.362192,-1.451595 C 34.326787,9.9726694 36.389683,6.8085339 36.389683,6.8085342 32.451808,3.9693888 27.617804,2.298224 22.393183,2.298224 Z m -1.994194,2.4561809 c 0.02008,-0.00254 0.04403,-0.00235 0.07235,0 4.536572,0.3780478 5.797063,1.5120523 5.797063,1.5120523 L 23.369871,10.047105 C 23.003634,7.2393127 19.776582,4.8332783 20.398989,4.7544049 Z" />
    <text
       xml:space="preserve"
       style="font-style:normal;font-weight:normal;font-size:69.056px;line-height:125%;font-family:sans-serif;letter-spacing:0px;word-spacing:0px;fill:#000000;fill-opacity:1;stroke:none;stroke-width:4.316px;stroke-linecap:butt;stroke-linejoin:miter;stroke-opacity:1"
       x="1.4288082"
       y="51.100647"
       id="text1948"><tspan
         sodipodi:role="line"
         id="tspan1946"
         style="stroke-width:4.316px"
         x="1.4288082"
         y="51.100647">D</tspan></text>
    <path
       id="path4158"
       style="fill:#b3ff80;stroke-width:0.126016"
       d="M 13.492434,4.0056135 C 12.589435,4.3668123 11.713791,4.7813189 10.868821,5.2453309 V 18.859487 c 0.796627,0.119045 1.601632,-0.197374 2.11615,-0.833024 1.330729,-1.641988 4.237774,-3.180908 6.362403,-4.153751 1.392476,-0.636381 1.842466,-2.391733 0.927592,-3.617868 C 17.468591,6.4869673 13.492434,4.0056132 13.492434,4.0056135 Z m 6.939628,0.7467243 c -0.760398,0.00337 2.565665,2.4416875 2.937806,5.2947672 l 2.898531,-3.7806478 c 0,0 -1.260488,-1.1340045 -5.797063,-1.5120523 -0.01416,-0.00119 -0.0272,-0.00212 -0.03927,-0.00206 z m 15.957684,2.0562054 c 0,-3e-7 -2.062895,3.1641352 -1.979726,6.3220948 0.01889,0.754835 0.609878,1.372201 1.362191,1.451591 0.05293,0.005 0.107268,0.0088 0.160198,0.0088 0.573373,0 1.102598,-0.325043 1.362191,-0.84801 0.55195,-1.10642 2.004714,-2.447036 5.673037,0.223242 l 0.0016,-0.0016 C 41.284392,11.153269 39.039898,8.7164129 36.389783,6.8085318 Z m 7.353038,8.5514158 c 0,0 -1.280605,0.287155 -2.995681,0.07545 -0.47634,-0.05923 -0.957299,0.05666 -1.346689,0.336414 -0.270934,0.195325 -0.582309,0.476144 -0.927593,0.822688 -1.750359,1.759183 -2.040183,5.418791 -2.040183,5.418791 -0.03403,0.763657 -2.65e-4,1.607895 0.121954,2.540413 0.273455,2.071702 2.172647,3.533766 4.24057,3.231328 0.03024,-0.0038 0.06071,-0.0091 0.09095,-0.01291 1.492027,-0.231871 2.854181,0.893736 2.939873,2.400887 0.07687,1.359712 0.366794,2.90081 1.131712,4.201293 h 0.0011 c 0.909836,-2.531658 1.405083,-5.261267 1.405083,-8.105448 0,-3.929177 -0.945015,-7.636261 -2.621029,-10.908895 z M 10.868821,26.938581 v 1.072803 c 0.225292,0.293193 0.394642,0.630047 0.484208,0.998387 0.0025,0.01008 0.0047,0.01886 0.0072,0.02894 0.07221,-0.716499 -0.135753,-1.416272 -0.491443,-2.10013 z m 0.491443,2.10013 c 0.240686,1.000567 0.43124,2.494971 0.205672,4.434354 -0.24069,2.076743 0.693045,4.115929 2.408122,5.311822 l 2.338876,1.631942 c 0,0 -0.802726,6.139437 1.425236,9.370487 0,0 0.673997,-0.63127 2.443261,-2.468584 l 3.727939,-3.953246 c 1.076176,-1.182028 2.149755,-2.403009 3.083532,-3.543453 1.65963,-2.027598 1.135495,-5.056952 -1.103808,-6.416662 -2.090605,-1.268981 -4.554687,-2.907205 -6.141228,-4.430739 -0.797681,-0.764916 -1.895274,-1.131829 -2.994133,-1.013375 -1.411377,0.152479 -3.411238,0.459975 -5.393469,1.077454 z" />
  </g>
</svg>
