<?xml version="1.0" encoding="UTF-8" standalone="no"?>
<!-- Created with Inkscape (http://www.inkscape.org/) -->

<svg
   width="800"
   height="200"
   viewBox="0 0 211.66667 52.916668"
   version="1.1"
   id="svg5"
   sodipodi:docname="logo.svg"
   inkscape:version="1.2 (dc2aedaf03, 2022-05-15)"
   xmlns:inkscape="http://www.inkscape.org/namespaces/inkscape"
   xmlns:sodipodi="http://sodipodi.sourceforge.net/DTD/sodipodi-0.dtd"
   xmlns="http://www.w3.org/2000/svg"
   xmlns:svg="http://www.w3.org/2000/svg">
  <sodipodi:namedview
     id="namedview7"
     pagecolor="#ffffff"
     bordercolor="#666666"
     borderopacity="1.0"
     inkscape:pageshadow="2"
     inkscape:pageopacity="0.0"
     inkscape:pagecheckerboard="0"
     inkscape:document-units="px"
     showgrid="false"
     units="px"
     objecttolerance="1"
     guidetolerance="1"
     inkscape:zoom="2.955"
     inkscape:cx="306.76819"
     inkscape:cy="100.50761"
     inkscape:window-width="2560"
     inkscape:window-height="1017"
     inkscape:window-x="-8"
     inkscape:window-y="-8"
     inkscape:window-maximized="1"
     inkscape:current-layer="layer1"
     inkscape:showpageshadow="2"
     inkscape:deskcolor="#d1d1d1" />
  <defs
     id="defs2" />
  <g
     inkscape:label="Layer 1"
     inkscape:groupmode="layer"
     id="layer1">
    <g
       id="g4175"
       transform="matrix(0.12601594,0,0,0.12601594,-2.9764018,2.3082396)" />
    <g
       id="g4177"
       transform="matrix(0.12601594,0,0,0.12601594,-2.9764018,2.3082396)" />
    <g
       id="g4179"
       transform="matrix(0.12601594,0,0,0.12601594,-2.9764018,2.3082396)" />
    <g
       id="g4181"
       transform="matrix(0.12601594,0,0,0.12601594,-2.9764018,2.3082396)" />
    <g
       id="g4183"
       transform="matrix(0.12601594,0,0,0.12601594,-2.9764018,2.3082396)" />
    <g
       id="g4185"
       transform="matrix(0.12601594,0,0,0.12601594,-2.9764018,2.3082396)" />
    <g
       id="g4187"
       transform="matrix(0.12601594,0,0,0.12601594,-2.9764018,2.3082396)" />
    <g
       id="g4189"
       transform="matrix(0.12601594,0,0,0.12601594,-2.9764018,2.3082396)" />
    <g
       id="g4191"
       transform="matrix(0.12601594,0,0,0.12601594,-2.9764018,2.3082396)" />
    <g
       id="g4193"
       transform="matrix(0.12601594,0,0,0.12601594,-2.9764018,2.3082396)" />
    <g
       id="g4195"
       transform="matrix(0.12601594,0,0,0.12601594,-2.9764018,2.3082396)" />
    <g
       id="g4197"
       transform="matrix(0.12601594,0,0,0.12601594,-2.9764018,2.3082396)" />
    <g
       id="g4199"
       transform="matrix(0.12601594,0,0,0.12601594,-2.9764018,2.3082396)" />
    <g
       id="g4201"
       transform="matrix(0.12601594,0,0,0.12601594,-2.9764018,2.3082396)" />
    <g
       id="g4203"
       transform="matrix(0.12601594,0,0,0.12601594,-2.9764018,2.3082396)" />
    <g
       aria-label="metamob"
       transform="scale(0.9961219,1.0038932)"
       id="text2670"
       style="font-size:58.4309px;line-height:125%;font-family:Impact;-inkscape-font-specification:'Impact, Normal';letter-spacing:-2.30148px;word-spacing:0px;stroke-width:3.65193px">
      <path
         d="m 12.556368,11.261112 -0.199715,3.59487 q 1.340943,-2.139804 3.195439,-3.19544 1.854497,-1.084167 4.222546,-1.084167 4.621976,0 7.275332,4.279607 1.455066,-2.139804 3.281032,-3.19544 1.825965,-1.084167 4.051361,-1.084167 2.938664,0 4.850221,1.426536 1.940089,1.426535 2.482172,3.509277 0.542084,2.054212 0.542084,6.704718 V 49.121368 H 31.0728 V 24.442302 q 0,-4.850222 -0.342368,-5.99145 -0.313838,-1.169759 -1.512128,-1.169759 -1.226821,0 -1.59772,1.141228 -0.342368,1.141229 -0.342368,6.019981 V 49.121368 H 16.094176 V 25.069977 q 0,-5.563489 -0.285307,-6.676187 -0.256777,-1.112697 -1.483597,-1.112697 -0.770329,0 -1.312413,0.599144 -0.542084,0.570615 -0.599145,1.426536 -0.05706,0.827391 -0.05706,3.566339 V 49.121368 H 1.172613 V 11.261112 Z"
         id="path863" />
      <path
         d="M 70.026732,30.861712 H 55.105169 v 8.188315 q 0,2.567764 0.370899,3.309562 0.370899,0.741799 1.426536,0.741799 1.312412,0 1.740373,-0.970044 0.456491,-0.998575 0.456491,-3.823116 v -4.992875 h 10.927264 v 2.79601 q 0,3.509278 -0.456492,5.392305 -0.42796,1.883027 -2.054211,4.022831 -1.626251,2.139803 -4.136954,3.22397 -2.482172,1.055637 -6.248226,1.055637 -3.651931,0 -6.447941,-1.055637 -2.79601,-1.055636 -4.365199,-2.881602 Q 44.77705,44.014371 44.177905,41.817506 43.578761,39.59211 43.578761,35.369565 V 24.328179 q 0,-4.964344 1.340943,-7.817416 1.340944,-2.881602 4.39373,-4.39373 3.052786,-1.540658 7.018555,-1.540658 4.850222,0 7.9886,1.854496 3.166909,1.825966 4.422261,4.878752 1.283882,3.024256 1.283882,8.530683 z M 58.471793,24.699078 v -2.767479 q 0,-2.938664 -0.313838,-3.794585 -0.313838,-0.855921 -1.283882,-0.855921 -1.19829,0 -1.483597,0.741798 -0.285307,0.713268 -0.285307,3.908708 v 2.767479 z"
         id="path865" />
      <path
         d="m 83.645392,6.2111758 v 5.9629192 h 3.109848 v 5.99145 h -3.109848 v 20.256806 q 0,3.737523 0.370899,4.165484 0.39943,0.427961 3.223971,0.427961 v 6.105572 h -4.650507 q -3.937238,0 -5.62055,-0.313837 -1.683312,-0.342369 -2.967194,-1.512128 -1.283882,-1.19829 -1.59772,-2.710418 -0.313838,-1.540658 -0.313838,-7.18974 v -19.2297 h -2.482172 v -5.99145 h 2.482172 V 6.2111758 Z"
         id="path867" />
      <path
         d="m 97.292574,25.925899 h -10.81314 v -2.539234 q 0,-4.39373 0.998575,-6.761779 1.027105,-2.39658 4.079892,-4.222545 3.052786,-1.825966 7.931538,-1.825966 5.848801,0 8.815991,2.082742 2.96719,2.054211 3.56634,5.078467 0.59914,2.995725 0.59914,12.382329 v 19.001455 h -11.21257 v -3.366624 q -1.05563,2.025681 -2.738945,3.052787 -1.654782,0.998575 -3.965769,0.998575 -3.024256,0 -5.56349,-1.683313 -2.510702,-1.711842 -2.510702,-7.446516 V 37.56643 q 0,-4.251077 1.340943,-5.791735 1.340944,-1.540659 6.647656,-3.59487 5.677617,-2.225396 6.077047,-2.995725 0.39943,-0.770329 0.39943,-3.138378 0,-2.967195 -0.4565,-3.851647 -0.42796,-0.912982 -1.455063,-0.912982 -1.169759,0 -1.455066,0.770329 -0.285307,0.741798 -0.285307,3.908707 z m 3.651936,5.192589 q -2.767484,2.025681 -3.223975,3.395155 -0.427961,1.369474 -0.427961,3.937239 0,2.938663 0.370899,3.794585 0.39943,0.855921 1.540659,0.855921 1.084168,0 1.398008,-0.656206 0.34237,-0.684738 0.34237,-3.537809 z"
         id="path869" />
      <path
         d="m 125.51896,11.261112 -0.19971,3.59487 q 1.34094,-2.139804 3.19544,-3.19544 1.85449,-1.084167 4.22254,-1.084167 4.62198,0 7.27533,4.279607 1.45507,-2.139804 3.28103,-3.19544 1.82597,-1.084167 4.05137,-1.084167 2.93866,0 4.85022,1.426536 1.94009,1.426535 2.48217,3.509277 0.54208,2.054212 0.54208,6.704718 V 49.121368 H 144.03539 V 24.442302 q 0,-4.850222 -0.34237,-5.99145 -0.31383,-1.169759 -1.51212,-1.169759 -1.22682,0 -1.59772,1.141228 -0.34237,1.141229 -0.34237,6.019981 V 49.121368 H 129.05677 V 25.069977 q 0,-5.563489 -0.28531,-6.676187 -0.25677,-1.112697 -1.4836,-1.112697 -0.77032,0 -1.31241,0.599144 -0.54208,0.570615 -0.59914,1.426536 -0.0571,0.827391 -0.0571,3.566339 V 49.121368 H 114.13521 V 11.261112 Z"
         id="path871" />
      <path
         d="m 182.96079,24.556424 v 9.272482 q 0,5.106998 -0.51355,7.503578 -0.51356,2.368049 -2.19687,4.450791 -1.68331,2.054211 -4.33667,3.052786 -2.62482,0.970045 -6.04851,0.970045 -3.82311,0 -6.47647,-0.827391 -2.65336,-0.855922 -4.13695,-2.539234 -1.45507,-1.711842 -2.08274,-4.108422 -0.62768,-2.425111 -0.62768,-7.246801 v -9.700443 q 0,-5.278182 1.14123,-8.245376 1.14123,-2.967194 4.10842,-4.764629 2.9672,-1.797435 7.58917,-1.797435 3.88018,0 6.64766,1.169759 2.79601,1.141229 4.30813,2.995725 1.51213,1.854496 2.05422,3.823116 0.57061,1.968619 0.57061,5.991449 z m -11.52641,-2.853071 q 0,-2.910133 -0.31384,-3.651931 -0.31383,-0.770329 -1.34094,-0.770329 -1.0271,0 -1.36947,0.770329 -0.34237,0.741798 -0.34237,3.651931 V 38.79325 q 0,2.681887 0.34237,3.509278 0.34237,0.79886 1.34094,0.79886 1.02711,0 1.34094,-0.741799 0.34237,-0.741798 0.34237,-3.195439 z"
         style="fill:none"
         id="path873" />
      <path
         d="M 195.9803,2.9301438 V 13.857407 q 1.42654,-1.654781 3.16691,-2.453641 1.76891,-0.827391 3.82312,-0.827391 2.36805,0 4.10842,0.741798 1.74037,0.741799 2.65336,2.082743 0.91298,1.340943 1.08416,2.624825 0.19972,1.283882 0.19972,5.477897 v 17.061367 q 0,4.165484 -0.57062,6.219695 -0.54208,2.025681 -2.59629,3.537808 -2.05421,1.483598 -4.87875,1.483598 -2.02568,0 -3.79459,-0.884453 -1.74037,-0.884452 -3.19544,-2.653356 l -0.7418,2.853071 H 184.45389 V 2.9301438 Z m 3.50928,19.0870472 q 0,-2.938664 -0.3709,-3.823116 -0.3709,-0.912982 -1.45507,-0.912982 -1.05563,0 -1.36947,0.798859 -0.31384,0.77033 -0.31384,3.937239 v 16.319568 q 0,3.052786 0.34237,3.908708 0.3709,0.855921 1.42654,0.855921 1.08416,0 1.398,-0.884452 0.34237,-0.884452 0.34237,-4.251076 z"
         id="path875" />
    </g>
    <g
       id="g1455"
       transform="matrix(0.99999999,0,0,1.4199985,1.8802889,-12.956139)">
      <circle
         style="fill:#1ea6c6;fill-opacity:1;stroke:#000000;stroke-width:0;stroke-linecap:round;stroke-linejoin:round;paint-order:stroke fill markers;stop-color:#000000"
         id="path495"
         cx="167.11354"
         cy="30.421694"
         r="13.643861" />
      <path
         id="path4158"
         style="fill:#b3ff80;stroke-width:0.0726242"
         d="m 161.70132,17.934695 c -0.52041,0.208162 -1.02505,0.447046 -1.51201,0.71446 l -2.27925,1.737496 -1.77276,1.929834 c 0.1645,0.02458 -1.6827,1.882952 -0.85728,2.53465 1.4783,1.167175 5.93856,1.398976 6.12884,1.163901 0.76691,-0.946292 2.44227,-1.833186 3.66671,-2.393844 0.8025,-0.366752 1.06183,-1.378377 0.53458,-2.085009 -1.61734,-2.171462 -3.90883,-3.601488 -3.90883,-3.601488 z m 3.99937,0.21774 c -0.43823,0.002 1.47861,1.407166 1.69308,3.051422 l 1.67045,-2.178821 c 0,0 -0.72643,-0.653538 -3.3409,-0.87141 -0.008,-6.91e-4 -0.0226,-0.0012 -0.0226,-0.0012 z m 9.19655,1.18501 c 0,0 -1.18886,1.823519 -1.14093,3.643479 0.0109,0.435018 0.35148,0.790812 0.78505,0.836565 0.0305,0.0029 0.0618,0.0051 0.0923,0.0051 0.33045,0 0.63544,-0.187325 0.78505,-0.488716 0.31809,-0.63764 1.15534,-1.410249 3.26942,0.128656 l 0.001,-9.22e-4 c -0.97098,-1.620243 -2.2645,-3.024625 -3.79179,-4.124155 z m 4.23763,4.928257 c 0,0 -0.73803,0.16549 -1.72644,0.04348 -0.27452,-0.03413 -0.5517,0.03265 -0.77611,0.193878 -0.15615,0.112568 -0.33559,0.274407 -0.53458,0.474123 -1.00875,1.013833 -1.17578,3.122898 -1.17578,3.122898 -0.0196,0.440102 -1.5e-4,0.926644 0.0703,1.464063 0.15759,1.19394 1.25211,2.036541 2.44388,1.862243 0.0174,-0.0022 0.035,-0.0052 0.0524,-0.0074 0.85987,-0.133629 1.64489,0.515068 1.69427,1.383653 0.0443,0.783614 0.21139,1.671762 0.65222,2.421242 h 5.8e-4 c 0.52434,-1.459017 0.80976,-3.032115 0.80976,-4.671242 0,-2.26442 -0.54462,-4.400846 -1.51052,-6.286894 z m -18.94556,6.672864 -1.3828,-2.293642 0.034,-1.869021 0.40496,-1.007532 -4.14327,-1.745612 -0.3761,1.545273 0.003,1.650512 1.28371,1.362309 2.65397,1.235138 1.52214,1.740841 c 0.12983,0.16897 0.22743,0.363102 0.27905,0.575379 0.001,0.0058 0.003,0.01087 0.004,0.01668 0.0416,-0.412925 -0.0782,-0.816211 -0.28322,-1.210324 z m 0.28322,1.210324 c 0.13871,0.576635 0.24853,1.437874 0.11853,2.555558 -0.13871,1.196845 0.39941,2.372046 1.38782,3.06125 l 1.34792,0.940503 c 0,0 -0.40003,3.059511 0.57632,4.985756 0.11747,0.02272 0.11848,0.03501 0.26184,0.06478 0.12818,0.02093 0.1449,0.0361 0.29054,0.04975 0.22381,-0.222314 0.57994,-0.58182 1.10075,-1.122658 l 2.14844,-2.278291 c 0.62021,-0.681214 1.23892,-1.384876 1.77707,-2.042124 0.95646,-1.168523 0.65439,-2.914367 -0.63614,-3.69798 -1.20483,-0.731326 -2.6249,-1.675448 -3.53924,-2.553475 -0.45971,-0.440828 -1.09226,-0.652284 -1.72555,-0.584017 -0.81339,0.08788 -1.96592,0.265088 -3.1083,0.620947 z"
         sodipodi:nodetypes="ccccsccccsccscscccsccccccccccccccccssccccccccccccccccccccccccccccc" />
    </g>
  </g>
</svg>
