<?xml version="1.0" encoding="UTF-8" standalone="no"?>
<!-- Created with Inkscape (http://www.inkscape.org/) -->

<svg
   width="800"
   height="200"
   viewBox="0 0 211.66667 52.916668"
   version="1.1"
   id="svg5"
   sodipodi:docname="logo.svg"
   inkscape:version="1.1.2 (b8e25be833, 2022-02-05)"
   xmlns:inkscape="http://www.inkscape.org/namespaces/inkscape"
   xmlns:sodipodi="http://sodipodi.sourceforge.net/DTD/sodipodi-0.dtd"
   xmlns="http://www.w3.org/2000/svg"
   xmlns:svg="http://www.w3.org/2000/svg">
  <sodipodi:namedview
     id="namedview7"
     pagecolor="#ffffff"
     bordercolor="#666666"
     borderopacity="1.0"
     inkscape:pageshadow="2"
     inkscape:pageopacity="0.0"
     inkscape:pagecheckerboard="0"
     inkscape:document-units="px"
     showgrid="false"
     units="px"
     objecttolerance="1"
     guidetolerance="1"
     inkscape:zoom="1.4775"
     inkscape:cx="269.71235"
     inkscape:cy="52.791878"
     inkscape:window-width="2560"
     inkscape:window-height="1017"
     inkscape:window-x="-8"
     inkscape:window-y="-8"
     inkscape:window-maximized="1"
     inkscape:current-layer="layer1" />
  <defs
     id="defs2" />
  <g
     inkscape:label="Layer 1"
     inkscape:groupmode="layer"
     id="layer1">
    <path
       id="path4154"
       style="fill:#1ea6c6;stroke-width:0.476281"
       d="m 57.353516,8.7265625 c -11.887967,0 -23.236702,2.2904305 -33.638672,6.4531255 0,0 15.026041,9.378345 25.632812,23.61914 3.457792,4.634211 1.757042,11.268609 -3.505859,13.673828 -8.030094,3.676887 -19.017348,9.491327 -24.046875,15.697266 -1.944637,2.40246 -4.987174,3.600328 -7.998047,3.15039 v 30.533208 c 1.344442,2.58475 2.132312,5.23131 1.859375,7.93945 7.491897,-2.33378 15.050423,-3.49597 20.384766,-4.07227 4.153166,-0.4477 8.301549,0.93906 11.316406,3.83008 5.996375,5.75824 15.307485,11.94995 23.208984,16.7461 8.463504,5.13906 10.444492,16.58859 4.171875,24.25195 -3.529239,4.31034 -7.58686,8.92507 -11.654297,13.39258 l -14.089843,14.9414 c -6.686982,6.94419 -9.234375,9.33008 -9.234375,9.33008 -8.420646,-12.21168 -5.386719,-35.41602 -5.386719,-35.41601 l -8.839844,-6.16797 c -6.482181,-4.51991 -10.011258,-12.22706 -9.101562,-20.07618 0.85254,-7.32994 0.132351,-12.97809 -0.777344,-16.75976 -0.0095,-0.0381 -0.01782,-0.0713 -0.02734,-0.10938 -0.340222,-1.39916 -0.972014,-2.68688 -1.830078,-3.79882 v 72.89843 c 7.997164,4.39302 16.727209,7.6156 25.962891,9.4336 5.691549,1.11925 11.573563,1.70507 17.59375,1.70508 39.283634,-10e-6 72.727584,-25.00389 85.287104,-59.9629 h -0.004 c -2.89103,-4.91521 -3.98681,-10.73983 -4.27734,-15.8789 -0.32387,-5.69632 -5.47217,-9.95058 -11.11133,-9.07422 -0.1143,0.0144 -0.22946,0.0344 -0.34375,0.0488 -7.81577,1.14307 -14.99187,-4.38284 -16.02539,-12.212893 -0.46201,-3.524481 -0.59147,-6.7153 -0.46289,-9.601563 0,0 1.0954,-13.831588 7.71093,-20.480468 1.30501,-1.309773 2.48186,-2.371139 3.50586,-3.109375 1.47171,-1.057338 3.29146,-1.495346 5.0918,-1.271485 6.48218,0.800149 11.32031,-0.287109 11.32031,-0.287109 -0.91445,-1.795578 -1.8903,-3.552106 -2.92383,-5.271485 l -0.006,0.0039 c -13.86452,-10.092389 -19.35529,-5.023542 -21.4414,-0.841797 -0.98114,1.976568 -2.98136,3.205078 -5.14844,3.205078 -0.20005,0 -0.40542,-0.01431 -0.60547,-0.0332 -2.84319,-0.300057 -5.07699,-2.633409 -5.14844,-5.486328 -0.31434,-11.935595 7.48243,-23.894532 7.48243,-23.894531 C 95.370365,15.042776 77.100114,8.7265625 57.353516,8.7265625 Z m -7.53711,9.2832035 c 0.07589,-0.0096 0.166402,-0.0089 0.273438,0 C 67.235939,19.438608 72,23.724609 72,23.724609 L 61.044922,38.013672 C 59.66073,27.401543 47.464002,18.30787 49.816406,18.009766 Z"
       transform="scale(0.26458334)" />
    <text
       xml:space="preserve"
       style="font-style:normal;font-weight:normal;font-size:69.056px;line-height:125%;font-family:sans-serif;letter-spacing:0px;word-spacing:0px;fill:#000000;fill-opacity:1;stroke:none;stroke-width:4.316px;stroke-linecap:butt;stroke-linejoin:miter;stroke-opacity:1"
       x="-5.7895899"
       y="51.111324"
       id="text1948"><tspan
         sodipodi:role="line"
         id="tspan1946"
         style="stroke-width:4.316px"
         x="-5.7895899"
         y="51.111324">D</tspan></text>
    <path
       id="path4158"
       style="fill:#b3ff80;stroke-width:0.476281"
       d="m 23.712891,15.179688 c -3.412908,1.365161 -6.722428,2.9318 -9.916016,4.685546 v 51.455078 c 3.010873,0.449934 6.05341,-0.74598 7.998047,-3.148437 5.029527,-6.205939 16.016781,-12.022332 24.046875,-15.699219 5.262901,-2.405219 6.963651,-9.039617 3.505859,-13.673828 C 38.740885,24.558033 23.712891,15.179687 23.712891,15.179688 Z m 26.228515,2.822265 c -2.873944,0.01273 9.696999,9.228425 11.103516,20.011719 L 72,23.724609 c 0,0 -4.76405,-4.286001 -21.910156,-5.714843 -0.05351,-0.0045 -0.10282,-0.008 -0.148438,-0.0078 z m 60.312504,7.771485 c 0,-10e-7 -7.79677,11.958936 -7.48243,23.894531 0.0714,2.852919 2.30505,5.186271 5.14844,5.486328 0.20004,0.0189 0.40542,0.0332 0.60547,0.0332 2.16708,0 4.1673,-1.22851 5.14844,-3.205078 2.08611,-4.181745 7.57687,-9.248639 21.4414,0.84375 l 0.006,-0.0059 c -6.36787,-10.62582 -14.851,-19.835985 -24.86718,-27.046874 z m 27.79101,32.320312 c 0,0 -4.84008,1.085309 -11.32226,0.285156 -1.80034,-0.22385 -3.61814,0.214143 -5.08985,1.271485 -1.024,0.738236 -2.20085,1.799602 -3.50586,3.109375 -6.61553,6.64888 -7.71093,20.480468 -7.71093,20.480468 -0.1286,2.886263 -0.001,6.077085 0.46093,9.601563 1.03353,7.830053 8.21158,13.355963 16.02735,12.212893 0.11429,-0.0144 0.22945,-0.0345 0.34375,-0.0488 5.63916,-0.87636 10.78746,3.3779 11.11133,9.07422 0.29052,5.13907 1.38631,10.96369 4.27734,15.8789 h 0.004 c 3.43875,-9.56847 5.31055,-19.8851 5.31055,-30.634761 0,-14.850433 -3.57171,-28.861459 -9.90625,-41.230469 z M 13.796875,101.85547 v 4.05469 c 0.851497,1.10813 1.49156,2.38128 1.830078,3.77343 0.0095,0.0381 0.01782,0.0713 0.02734,0.10938 0.272923,-2.70803 -0.513084,-5.35284 -1.857422,-7.9375 z m 1.857422,7.9375 c 0.90968,3.78167 1.629884,9.42981 0.777344,16.75976 -0.909697,7.84911 2.619381,15.55627 9.101562,20.07618 l 8.839844,6.16797 c 0,0 -3.033924,23.20417 5.386719,35.41601 0,0 2.547393,-2.3859 9.234375,-9.33008 l 14.089843,-14.9414 c 4.067437,-4.46751 8.125058,-9.08224 11.654297,-13.39258 6.272617,-7.66336 4.291633,-19.11289 -4.171875,-24.25195 -7.901499,-4.79615 -17.214562,-10.98786 -23.210937,-16.7461 -3.014858,-2.89102 -7.16324,-4.27778 -11.316407,-3.83008 -5.334341,0.5763 -12.892868,1.73849 -20.384765,4.07227 z"
       transform="scale(0.26458334)" />
    <g
       id="g4175"
       transform="matrix(0.12601594,0,0,0.12601594,-2.9764018,2.3082396)" />
    <g
       id="g4177"
       transform="matrix(0.12601594,0,0,0.12601594,-2.9764018,2.3082396)" />
    <g
       id="g4179"
       transform="matrix(0.12601594,0,0,0.12601594,-2.9764018,2.3082396)" />
    <g
       id="g4181"
       transform="matrix(0.12601594,0,0,0.12601594,-2.9764018,2.3082396)" />
    <g
       id="g4183"
       transform="matrix(0.12601594,0,0,0.12601594,-2.9764018,2.3082396)" />
    <g
       id="g4185"
       transform="matrix(0.12601594,0,0,0.12601594,-2.9764018,2.3082396)" />
    <g
       id="g4187"
       transform="matrix(0.12601594,0,0,0.12601594,-2.9764018,2.3082396)" />
    <g
       id="g4189"
       transform="matrix(0.12601594,0,0,0.12601594,-2.9764018,2.3082396)" />
    <g
       id="g4191"
       transform="matrix(0.12601594,0,0,0.12601594,-2.9764018,2.3082396)" />
    <g
       id="g4193"
       transform="matrix(0.12601594,0,0,0.12601594,-2.9764018,2.3082396)" />
    <g
       id="g4195"
       transform="matrix(0.12601594,0,0,0.12601594,-2.9764018,2.3082396)" />
    <g
       id="g4197"
       transform="matrix(0.12601594,0,0,0.12601594,-2.9764018,2.3082396)" />
    <g
       id="g4199"
       transform="matrix(0.12601594,0,0,0.12601594,-2.9764018,2.3082396)" />
    <g
       id="g4201"
       transform="matrix(0.12601594,0,0,0.12601594,-2.9764018,2.3082396)" />
    <g
       id="g4203"
       transform="matrix(0.12601594,0,0,0.12601594,-2.9764018,2.3082396)" />
    <text
       xml:space="preserve"
       style="font-style:normal;font-variant:normal;font-weight:normal;font-stretch:normal;font-size:49.5207px;line-height:125%;font-family:Impact;-inkscape-font-specification:'Impact, Normal';font-variant-ligatures:normal;font-variant-caps:normal;font-variant-numeric:normal;font-variant-east-asian:normal;letter-spacing:-1.95052px;word-spacing:0px;fill:#000000;fill-opacity:1;stroke:none;stroke-width:3.09504px;stroke-linecap:butt;stroke-linejoin:miter;stroke-opacity:1"
       x="43.835384"
       y="43.160847"
       id="text2670"
       transform="scale(0.9961219,1.0038932)"><tspan
         sodipodi:role="line"
         id="tspan2668"
         style="font-style:normal;font-variant:normal;font-weight:normal;font-stretch:normal;font-size:49.5207px;font-family:Impact;-inkscape-font-specification:'Impact, Normal';font-variant-ligatures:normal;font-variant-caps:normal;font-variant-numeric:normal;font-variant-east-asian:normal;fill:#000000;stroke-width:3.09504px"
         x="43.835384"
         y="43.160847">changes</tspan></text>
  </g>
</svg>
